<?xml version="1.0" encoding="UTF-8"?>
<svg width="152px" height="42px" viewBox="0 0 152 42" version="1.1" xmlns="http://www.w3.org/2000/svg" xmlns:xlink="http://www.w3.org/1999/xlink">
    <title>34291292-C7B5-4081-A321-5195A36CA2DF</title>
    <defs>
        <polygon id="path-1" points="6.2200806e-17 0 31.9895864 0 31.9895864 41.5503209 6.2200806e-17 41.5503209"></polygon>
    </defs>
    <g id="Mobile" stroke="none" stroke-width="1" fill="none" fill-rule="evenodd">
        <g id="Home-screen" transform="translate(-112.000000, -40.000000)">
            <g id="Logo-yellow" transform="translate(112.000000, 40.000000)">
                <g id="Group-3">
                    <mask id="mask-2" fill="white">
                        <use xlink:href="#path-1"></use>
                    </mask>
                    <g id="Clip-2"></g>
                    <path d="M18.5459985,22.1344923 C18.5845875,22.1444051 18.6245926,22.1511316 18.6665448,22.1511316 C18.902504,22.1511316 19.2135169,21.9817296 19.5882548,21.6066377 L27.0890304,14.1194922 C27.8751479,13.3360299 28.1176566,12.1477374 27.6928238,11.1617714 C25.8410843,6.87308522 22.6863473,4.38161838 18.5459985,3.92527724 L18.5459985,22.1344923 Z M12.5976325,4.51278548 C12.3248545,4.51278548 12.0540237,4.56588957 11.7946987,4.6689115 C10.5819783,5.15339781 9.48467083,5.85897414 8.53782492,6.76510691 C5.44822902,9.72442077 3.82395195,14.5692838 3.83557227,20.7718414 C3.82395195,26.9809485 5.44822902,31.8274047 8.53782492,34.7868956 C10.2106037,36.390108 12.2848494,37.337839 14.7104672,37.610086 L14.7104672,6.58915536 C14.7104672,5.44387718 13.7620282,4.51278548 12.5976325,4.51278548 L12.5976325,4.51278548 Z M16.0134645,41.5486392 C12.1258912,41.5486392 8.61978223,40.1578431 5.87306173,37.5270666 C2.01558071,33.830845 -0.0167127755,28.0366578 6.2200806e-17,20.7718414 C-0.0167127755,13.5153447 2.01558071,7.72275065 5.87306173,4.0247589 C8.62155237,1.39415935 12.1543904,0.00159312267 16.0886953,0.00159312267 L16.6992153,0.0132760222 L17.3083192,0 C23.3352793,0 28.3369764,3.3675073 31.0298848,9.23975746 C31.2290251,9.67467994 31.4950766,10.4232706 31.7476751,11.1833671 C32.3128796,12.896328 31.8714076,14.7501918 30.5935462,16.0232738 L20.1185876,26.4764597 C19.1048306,27.4854374 18.5459985,28.8282628 18.5459985,30.2541075 L18.5459985,34.9693966 C18.5459985,35.5353092 18.7702748,36.064757 19.1782912,36.4632146 C19.5714385,36.8466262 20.1017713,37.065769 20.6336973,37.065769 C20.8811623,37.065769 21.1288044,37.0192145 21.3665337,36.9278754 C22.6158959,36.4432121 23.7432957,35.7229436 24.7168707,34.7900818 C25.4513002,34.0846825 26.1287314,33.1868694 26.7895233,32.0449544 C26.99362,31.6930513 27.370128,31.4756786 27.773188,31.4756786 L27.9034701,31.4756786 L28.2498857,31.5818868 L29.6532498,32.2389614 C29.9393038,32.3734917 30.1568536,32.6225499 30.2522639,32.9195788 C30.3459041,33.2150145 30.3140417,33.5385955 30.16181,33.8074792 C29.2903719,35.3544013 28.3803448,36.5710159 27.383404,37.5270666 C24.6382766,40.1594363 21.1088019,41.5504094 17.1794533,41.5504094 L16.0134645,41.5486392 Z" id="Fill-1" fill="#FFD008" mask="url(#mask-2)"></path>
                </g>
                <g id="Group" transform="translate(49.299132, 11.314555)" fill="#FFD008">
                    <path d="M3.6273633,14.3273239 C3.6273633,16.3890016 4.01891745,16.8065768 5.16702786,16.8065768 L9.62971848,16.8065768 L9.62971848,18.8420565 L4.01891745,18.8420565 C1.09589138,18.8420565 0,17.276371 0,14.3273239 L0,5.21944159 C0,2.11373746 1.1220894,0.5480519 4.01891745,0.5480519 L9.57749946,0.5480519 L9.57749946,2.63575065 L5.16702786,2.63575065 C3.96669843,2.63575065 3.6273633,3.0273048 3.6273633,5.21944159 L3.6273633,14.3273239 Z" id="Fill-4"></path>
                    <path d="M14.9014499,14.5621502 C14.9014499,16.5978069 15.162545,16.806506 16.7022096,16.806506 L17.772257,16.806506 C19.3379425,16.806506 19.5990376,16.5978069 19.5990376,14.5621502 L19.5990376,8.66423304 C19.5990376,6.60255529 19.3379425,6.44589823 17.772257,6.44589823 L16.7022096,6.44589823 C15.162545,6.44589823 14.9014499,6.60255529 14.9014499,8.66423304 L14.9014499,14.5621502 Z M19.0508264,4.35819948 C22.3131876,4.35819948 23.1483379,5.55870592 23.1483379,8.79469209 L23.1483379,14.4056701 C23.1483379,17.6416563 22.3131876,18.8421627 19.0508264,18.8421627 L15.3974421,18.8421627 C12.1614559,18.8421627 11.3523266,17.6416563 11.3523266,14.4056701 L11.3523266,8.79469209 C11.3523266,5.55870592 12.1614559,4.35819948 15.3974421,4.35819948 L19.0508264,4.35819948 Z" id="Fill-6"></path>
                    <path d="M31.5255079,6.44596904 L29.0984741,6.44596904 L29.0984741,18.8420565 L25.5491738,18.8420565 L25.5491738,3.75784005 C25.5491738,0.965627053 26.5147831,0.026038705 29.2029121,0.026038705 L31.5255079,0.026038705 L31.5255079,2.00947643 L29.8814054,2.00947643 C29.3333712,2.00947643 29.0984741,2.19215449 29.0984741,2.87064774 L29.0984741,4.35827028 L31.5255079,4.35827028 L31.5255079,6.44596904 Z" id="Fill-8"></path>
                    <path d="M37.1622946,12.9963407 L37.1622946,11.012903 L38.4672391,11.012903 C40.0069036,11.012903 40.2416237,10.7519849 40.2416237,9.55147846 L40.2416237,8.01181391 C40.2416237,6.60243138 40.0069036,6.44595133 38.4672391,6.44595133 L37.9452259,6.44595133 C36.3793633,6.44595133 36.1184452,6.60243138 36.1184452,8.66410913 L36.1184452,14.5622033 C36.1184452,16.597683 36.3793633,16.8065591 37.9452259,16.8065591 L42.7210536,16.8065591 L42.7210536,18.8420388 L36.6664794,18.8420388 C33.4044722,18.8420388 32.5693219,17.6417094 32.5693219,14.4055462 L32.5693219,8.79474519 C32.5693219,5.55858201 33.4044722,4.35825258 36.6664794,4.35825258 L39.7459855,4.35825258 C43.0079927,4.35825258 43.817122,5.55858201 43.817122,7.77691682 L43.817122,9.57767648 C43.817122,11.7958343 43.0079927,12.9963407 39.7459855,12.9963407 L37.1622946,12.9963407 Z" id="Fill-10"></path>
                    <path d="M52.6902311,11.6131739 L50.8894715,11.6131739 L50.8894715,9.57751716 L52.246635,9.57751716 C53.3165053,9.57751716 53.6036214,8.97744096 53.6036214,6.0806129 C53.6036214,3.23600387 53.3165053,2.63575065 52.246635,2.63575065 L49.480266,2.63575065 L49.480266,18.8420565 L45.8005066,18.8420565 L45.8005066,0.5480519 L52.6902311,0.5480519 C56.3439695,0.5480519 57.2051408,1.56570326 57.2051408,6.18487393 C57.2051408,10.8042216 56.3439695,11.6131739 52.6902311,11.6131739" id="Fill-12"></path>
                    <path d="M63.2595202,12.9963407 L63.2595202,11.012903 L64.5644647,11.012903 C66.1041293,11.012903 66.3390264,10.7519849 66.3390264,9.55147846 L66.3390264,8.01181391 C66.3390264,6.60243138 66.1041293,6.44595133 64.5644647,6.44595133 L64.0424515,6.44595133 C62.476589,6.44595133 62.2156709,6.60243138 62.2156709,8.66410913 L62.2156709,14.5622033 C62.2156709,16.597683 62.476589,16.8065591 64.0424515,16.8065591 L68.8182793,16.8065591 L68.8182793,18.8420388 L62.7637051,18.8420388 C59.5016979,18.8420388 58.6665476,17.6417094 58.6665476,14.4055462 L58.6665476,8.79474519 C58.6665476,5.55858201 59.5016979,4.35825258 62.7637051,4.35825258 L65.8432112,4.35825258 C69.1052184,4.35825258 69.9143477,5.55858201 69.9143477,7.77691682 L69.9143477,9.57767648 C69.9143477,11.7958343 69.1052184,12.9963407 65.8432112,12.9963407 L63.2595202,12.9963407 Z" id="Fill-14"></path>
                    <path d="M77.0387568,6.44596904 C75.4990923,6.44596904 75.2379972,6.60244908 75.2379972,8.66412683 L75.2379972,14.9796191 C75.2379972,16.5716797 75.4990923,16.8065768 77.0387568,16.8065768 L79.4918117,16.8065768 L79.4918117,0.026038705 L83.06731,0.026038705 L83.06731,18.8420565 L75.7339894,18.8420565 C72.5762432,18.8420565 71.6888739,17.7459881 71.6888739,14.4055639 L71.6888739,8.79476289 C71.6888739,5.55859971 72.4980032,4.35827028 75.7339894,4.35827028 L78.2654613,4.35827028 L78.2654613,6.44596904 L77.0387568,6.44596904 Z" id="Fill-16"></path>
                    <path d="M85.7292941,18.8420388 L89.2785944,18.8420388 L89.2785944,4.35807557 L85.7292941,4.35807557 L85.7292941,18.8420388 Z M85.7292941,2.5052739 L89.2785944,2.5052739 L89.2785944,0 L85.7292941,0 L85.7292941,2.5052739 Z" id="Fill-18"></path>
                    <path d="M97.7599016,9.96905361 L97.7599016,11.9524913 L96.8727092,11.9524913 C95.3068467,11.9524913 95.0459286,12.2396074 95.0459286,13.4399369 L95.0459286,15.2406965 C95.0459286,16.597683 95.3068467,16.8065591 96.8727092,16.8065591 L98.8037509,16.8065591 L98.8037509,8.66410913 C98.8037509,6.60243138 98.5690309,6.44595133 96.9769703,6.44595133 L93.427847,6.44595133 L93.427847,4.35825258 L98.2819148,4.35825258 C101.517901,4.35825258 102.379249,5.55858201 102.379249,8.79474519 L102.379249,18.8420388 L95.5939628,18.8420388 C92.3317786,18.8420388 91.4966283,17.6417094 91.4966283,15.4233746 L91.4966283,13.3877178 C91.4966283,11.16956 92.3317786,9.96905361 95.5939628,9.96905361 L97.7599016,9.96905361 Z" id="Fill-20"></path>
                </g>
            </g>
        </g>
    </g>
</svg>