<?xml version="1.0" encoding="UTF-8"?>
<svg width="50px" height="50px" viewBox="0 0 50 50" version="1.1" xmlns="http://www.w3.org/2000/svg" xmlns:xlink="http://www.w3.org/1999/xlink">
    <title>07749830-4D8E-4415-A248-A3EE2886B8E2</title>
    <defs>
        <radialGradient cx="50%" cy="50%" fx="50%" fy="50%" r="683.296048%" gradientTransform="translate(0.500000,0.500000),scale(0.073175,1.000000),translate(-0.500000,-0.500000)" id="radialGradient-1">
            <stop stop-color="#D5D5D5" offset="0%"></stop>
            <stop stop-color="#D7D7D7" stop-opacity="0" offset="100%"></stop>
        </radialGradient>
        <filter x="-17.7%" y="-242.5%" width="135.5%" height="585.1%" filterUnits="objectBoundingBox" id="filter-2">
            <feGaussianBlur stdDeviation="2" in="SourceGraphic"></feGaussianBlur>
        </filter>
    </defs>
    <g id="Mobile" stroke="none" stroke-width="1" fill="none" fill-rule="evenodd">
        <g id="My-Basket-Empty" transform="translate(-32.000000, -137.000000)">
            <g id="Group-5" transform="translate(16.000000, 121.000000)">
                <g id="Shopping-basket-" transform="translate(16.000000, 16.000000)">
                    <circle id="Oval" fill="#D2F9FF" cx="25" cy="25" r="25"></circle>
                    <g id="Group-2" transform="translate(4.245283, 15.094340)" stroke="#DDE5E6" stroke-linecap="round" stroke-linejoin="round" stroke-width="3">
                        <line x1="41.509434" y1="4.87421384" x2="23.8993711" y2="4.87421384" id="Line-2" style="mix-blend-mode: multiply;"></line>
                        <line x1="9.11949686" y1="0.157232704" x2="7.2327044" y2="0.157232704" id="Line-2-Copy-2" style="mix-blend-mode: multiply;"></line>
                        <line x1="5.03144654" y1="14.6226415" x2="3.35161668e-15" y2="14.6226415" id="Line-2-Copy" style="mix-blend-mode: multiply;"></line>
                    </g>
                    <g id="shopping-basket-(1)" transform="translate(11.363636, 9.375000)" fill-rule="nonzero">
                        <g id="Group" transform="translate(9.040286, 0.964340)">
                            <rect id="Rectangle" fill="#E1E471" x="0" y="12.4609833" width="17.7363393" height="2.74632879"></rect>
                            <path d="M15.6766732,22.5539203 L16.2259132,15.207634 L0.709190958,15.207634 L1.2583666,22.5539203 C1.40756833,24.5498635 2.89591672,26.1930135 4.89745983,26.1930135 L12.0376443,26.1930135 C14.0391875,26.1930135 15.5275359,24.5498635 15.6766732,22.5539203 Z" id="Path" fill="#F9FF2C"></path>
                            <g transform="translate(0.431642, 0.000000)" fill="#E1E471" id="Path">
                                <path d="M0,1.78192435 C0,2.54164307 0.415164429,3.20693602 1.02992962,3.56397743 C1.64463044,3.20687166 2.0597305,2.54151434 2.0597305,1.78192435 C2.0597305,1.02233436 1.64456607,0.357041409 1.02992962,0 C0.415164429,0.357041409 0,1.02233436 0,1.78192435 Z"></path>
                                <path d="M8.51949592,1.78192435 C8.51949592,2.54164307 8.93466035,3.20693602 9.54942554,3.56397743 C10.1641264,3.20687166 10.5792264,2.54151434 10.5792264,1.78192435 C10.5792264,1.02233436 10.164062,0.357041409 9.54942554,0 C8.93466035,0.357041409 8.51949592,1.02233436 8.51949592,1.78192435 Z"></path>
                            </g>
                        </g>
                        <g id="Group" fill="#2B8ECD">
                            <path d="M26.7766896,12.739047 L21.3814187,12.739047 L19.3429291,5.13568054 C20.1748672,4.66322985 20.7377529,3.76949992 20.7377529,2.74626442 C20.7377529,1.23191194 19.5058409,0 17.9915528,0 C16.4772003,0 15.2450953,1.23191194 15.2450953,2.74626442 C15.2450953,4.26061691 16.477136,5.49265758 17.9915528,5.49265758 C17.9999849,5.49265758 18.0082881,5.49207828 18.0167202,5.49201392 L19.9596897,12.739047 L7.50346948,12.739047 L9.44643901,5.49194955 C9.45499977,5.49201392 9.46349615,5.49265758 9.47205691,5.49265758 C10.9862807,5.49265758 12.218257,4.26068128 12.218257,2.74626442 C12.2181926,1.23191194 10.9862807,0 9.47205691,0 C7.95757569,0 6.72559939,1.23191194 6.72559939,2.74626442 C6.72559939,3.76937118 7.28835638,4.66303676 8.1202944,5.13555181 L6.08180487,12.739047 L0.686598289,12.739047 C0.307479144,12.739047 0,13.0463974 0,13.4256452 L0,16.1720384 C0,16.5512219 0.307479144,16.8586367 0.686598289,16.8586367 L1.55992402,16.8586367 L2.06159713,23.5694961 C2.24375455,26.0063504 4.10259696,27.8440162 6.38535765,27.8440162 L21.0779946,27.8440162 C23.3607553,27.8440162 25.2195334,26.0064148 25.4016908,23.5694961 L25.9034926,16.8585723 L26.776754,16.8585723 C27.1558731,16.8585723 27.4633523,16.5512219 27.4633523,16.171974 L27.4633523,13.4255809 C27.4633523,13.0463974 27.1557444,12.739047 26.7766896,12.739047 Z M16.6182919,2.74626442 C16.6182919,1.98918473 17.2343444,1.37319658 17.9915528,1.37319658 C18.7486325,1.37319658 19.3645563,1.98918473 19.3645563,2.74626442 C19.3645563,3.12461117 19.2107846,3.46781377 18.9624583,3.71639749 L18.654593,2.56841957 C18.5564339,2.20223811 18.1801469,1.98474344 17.8136436,2.08309557 C17.4473978,2.1812546 17.2300318,2.55779908 17.3282552,2.92410928 L17.6358631,4.0711217 C17.0507709,3.91368105 16.6182919,3.38021085 16.6182919,2.74626442 Z M8.0987316,2.74626442 C8.0987316,1.98918473 8.71478412,1.37319658 9.47199254,1.37319658 C10.2290722,1.37319658 10.844996,1.98918473 10.844996,2.74626442 C10.844996,3.38040395 10.4123883,3.91400289 9.82736042,4.0711217 L10.1349039,2.92404491 C10.233063,2.55773472 10.0157614,2.18131897 9.64957993,2.0830312 C9.28301227,1.9846147 8.90685399,2.20217374 8.80856622,2.5683552 L8.50089398,3.71607566 C8.25256772,3.4675563 8.0987316,3.1245468 8.0987316,2.74626442 Z M24.0322275,23.4671533 C23.9043311,25.1794973 22.634121,26.470884 21.0779303,26.470884 L6.38535765,26.470884 C4.82910253,26.470884 3.55895684,25.1795617 3.43093172,23.4671533 L2.93691823,16.8586367 L24.5263697,16.8586367 L24.0322275,23.4671533 Z M26.0900913,15.4853757 L25.2661991,15.4853757 L2.19708878,15.4853757 L1.37319658,15.4853757 L1.37319658,14.1121792 L6.60639248,14.1121792 C6.60722925,14.1121792 6.60806601,14.1123079 6.60890278,14.1123079 C6.61025448,14.1123079 6.61160618,14.1121792 6.61295787,14.1121792 L20.8502013,14.1121792 C20.851553,14.1121792 20.8529047,14.1123079 20.8542564,14.1123079 C20.8550932,14.1123079 20.8559943,14.1121792 20.8567667,14.1121792 L26.0900913,14.1121792 L26.0900913,15.4853757 L26.0900913,15.4853757 Z" id="Shape"></path>
                            <path d="M6.86540359,25.0975587 C7.24458711,25.0975587 7.55200188,24.7902083 7.55200188,24.4109604 L7.55200188,18.9183028 C7.55200188,18.5391193 7.24465147,18.2317045 6.86540359,18.2317045 C6.48628445,18.2317045 6.1788053,18.5390549 6.1788053,18.9183028 L6.1788053,24.4109604 C6.1788053,24.7901439 6.48628445,25.0975587 6.86540359,25.0975587 Z" id="Path"></path>
                            <path d="M17.1639274,25.0975587 C17.5430465,25.0975587 17.8505257,24.7902083 17.8505257,24.4109604 L17.8505257,18.9183028 C17.8505257,18.5391193 17.5430465,18.2317045 17.1639274,18.2317045 C16.7847439,18.2317045 16.4773291,18.5390549 16.4773291,18.9183028 L16.4773291,24.4109604 C16.4773291,24.7901439 16.7846795,25.0975587 17.1639274,25.0975587 Z" id="Path"></path>
                            <path d="M20.6190609,19.9484899 C20.9981157,19.9484899 21.3056592,19.6411395 21.3056592,19.2618916 L21.3056592,18.9183672 C21.3056592,18.5391837 20.9981157,18.2317689 20.6190609,18.2317689 C20.2398774,18.2317689 19.9324626,18.5391193 19.9324626,18.9183672 L19.9324626,19.2618916 C19.9324626,19.6411395 20.239813,19.9484899 20.6190609,19.9484899 Z" id="Path"></path>
                            <path d="M20.6190609,25.0975587 C20.9981157,25.0975587 21.3056592,24.7902083 21.3056592,24.4109604 L21.3056592,21.6646316 C21.3056592,21.2854481 20.9981157,20.9780333 20.6190609,20.9780333 C20.2398774,20.9780333 19.9324626,21.2853837 19.9324626,21.6646316 L19.9324626,24.4109604 C19.9324626,24.7901439 20.239813,25.0975587 20.6190609,25.0975587 Z" id="Path"></path>
                            <path d="M13.7312578,25.0975587 C14.1103769,25.0975587 14.4179204,24.7902083 14.4179204,24.4109604 L14.4179204,23.986849 C14.4179204,23.6076655 14.1103769,23.3002507 13.7312578,23.3002507 C13.3520742,23.3002507 13.0446595,23.6076011 13.0446595,23.986849 L13.0446595,24.4109604 C13.0446595,24.7901439 13.3520742,25.0975587 13.7312578,25.0975587 Z" id="Path"></path>
                            <path d="M10.2829471,20.0111186 C10.6621306,20.0111186 10.9695454,19.7037682 10.9695454,19.3245203 L10.9695454,18.9184316 C10.9695454,18.539248 10.6621949,18.2318333 10.2829471,18.2318333 C9.90382792,18.2318333 9.59634877,18.5391837 9.59634877,18.9184316 L9.59634877,19.3245203 C9.59641314,19.7037038 9.90382792,20.0111186 10.2829471,20.0111186 Z" id="Path"></path>
                            <path d="M13.7312578,22.3512299 C14.1103769,22.3512299 14.4179204,22.0438795 14.4179204,21.6646316 L14.4179204,18.9182385 C14.4179204,18.5390549 14.1103769,18.2316402 13.7312578,18.2316402 C13.3520742,18.2316402 13.0446595,18.5389906 13.0446595,18.9182385 L13.0446595,21.6646316 C13.0446595,22.0438795 13.3520742,22.3512299 13.7312578,22.3512299 Z" id="Path"></path>
                            <path d="M10.2829471,25.0975587 C10.6621306,25.0975587 10.9695454,24.7902083 10.9695454,24.4109604 L10.9695454,21.6646316 C10.9695454,21.2854481 10.6621949,20.9780333 10.2829471,20.9780333 C9.90382792,20.9780333 9.59634877,21.2853837 9.59634877,21.6646316 L9.59634877,24.4109604 C9.59641314,24.7901439 9.90382792,25.0975587 10.2829471,25.0975587 Z" id="Path"></path>
                        </g>
                    </g>
                    <ellipse id="Oval" fill="url(#radialGradient-1)" fill-rule="nonzero" style="mix-blend-mode: multiply;" filter="url(#filter-2)" cx="25.1420455" cy="41.5778114" rx="16.9034091" ry="1.2369023"></ellipse>
                </g>
            </g>
        </g>
    </g>
</svg>