<?xml version="1.0" encoding="UTF-8"?>
<svg width="102px" height="102px" viewBox="0 0 102 102" version="1.1" xmlns="http://www.w3.org/2000/svg" xmlns:xlink="http://www.w3.org/1999/xlink">
    <title>AB102231-FC60-43A6-BD10-9FE44F412081</title>
    <g id="Mobile" stroke="none" stroke-width="1" fill="none" fill-rule="evenodd">
        <g id="Succ" transform="translate(-136.000000, -294.000000)" fill-rule="nonzero">
            <g id="Group-2" transform="translate(15.000000, 207.000000)">
                <g id="Succ-sign" transform="translate(121.000000, 87.000000)">
                    <circle id="Oval" fill="#07CF5F" cx="50.91075" cy="50.91075" r="50.91075"></circle>
                    <path d="M93.5493,23.1489 L48.5265,69.764175 L48.60555,74.774925 L50.6736,74.774925 L99.43725,35.479425 C98.005425,31.103625 96.016425,26.8872 93.550575,23.1489 L93.5493,23.1489 Z" id="Shape" fill="#37A18E"></path>
                    <path d="M100.8678,20.921475 L91.87905,12.011775 C90.68565,10.818375 88.69665,10.818375 87.4242,12.011775 L49.002075,51.70635 L32.376075,35.32005 C31.182675,34.12665 29.19495,34.12665 27.921225,35.32005 L19.9665,43.195725 C18.7737074,44.4099728 18.7737074,46.3560022 19.9665,47.57025 L46.5375,73.90155 C47.25405,74.616825 48.20775,74.85525 49.162725,74.7762 C50.1177,74.85525 51.0714,74.616825 51.78795,73.90155 L100.869075,25.37505 C102.062475,24.103875 102.062475,22.114875 100.869075,20.921475 L100.8678,20.921475 Z" id="Shape" fill="#F2F1EF"></path>
                    <path d="M51.786675,73.90155 L100.8678,25.37505 C102.059758,24.1609569 102.059758,22.2158931 100.8678,21.0018 L99.43725,19.64775 L49.0824,69.12795 L21.240225,42.002325 L20.046825,43.195725 C18.8540324,44.4099728 18.8540324,46.3560022 20.046825,47.57025 L46.614,73.90155 C47.33055,74.616825 48.28425,74.85525 49.2405,74.7762 C50.11515,74.85525 51.06885,74.616825 51.7854,73.90155 L51.786675,73.90155 Z" id="Shape" fill="#E6E5E3"></path>
                </g>
            </g>
        </g>
    </g>
</svg>