<?xml version="1.0" encoding="UTF-8"?>
<svg width="32px" height="32px" viewBox="0 0 32 32" version="1.1" xmlns="http://www.w3.org/2000/svg" xmlns:xlink="http://www.w3.org/1999/xlink">
    <title>E1E1ACA5-EC91-440B-9969-0BDAC6941EAB</title>
    <defs>
        <rect id="path-1" x="0" y="0" width="31.5" height="31.5"></rect>
    </defs>
    <g id="Mobile" stroke="none" stroke-width="1" fill="none" fill-rule="evenodd" opacity="0.300000012">
        <g id="Account-settings" transform="translate(-172.000000, -134.000000)">
            <g id="Group-2" transform="translate(95.000000, 120.000000)">
                <g id="Group" transform="translate(63.000000, 0.000000)">
                    <g id="user-/-user" transform="translate(14.250000, 14.250000)">
                        <mask id="mask-2" fill="white">
                            <use xlink:href="#path-1"></use>
                        </mask>
                        <g id="user-/-user-(Background/Mask)"></g>
                        <path d="M9.1875,9.1875 C9.1875,12.8060625 12.1314375,15.75 15.75,15.75 C19.3685625,15.75 22.3125,12.8060625 22.3125,9.1875 C22.3125,5.56893754 19.3685625,2.625 15.75,2.625 C12.1314375,2.625 9.1875,5.56893754 9.1875,9.1875 Z M11.8125,9.1875 C11.8125,7.01662494 13.5791249,5.25 15.75,5.25 C17.9208751,5.25 19.6875,7.01662494 19.6875,9.1875 C19.6875,11.3583751 17.9208751,13.125 15.75,13.125 C13.5791249,13.125 11.8125,11.3583751 11.8125,9.1875 Z M27.5625,26.25 C27.5625,21.1850625 23.4399375,17.0625 18.375,17.0625 L13.125,17.0625 C8.05875014,17.0625 3.9375,21.1850625 3.9375,26.25 L3.9375,27.5625 L6.5625,27.5625 L6.5625,26.25 C6.5625,22.6314375 9.50643754,19.6875 13.125,19.6875 L18.375,19.6875 C21.9935625,19.6875 24.9375,22.6314375 24.9375,26.25 L24.9375,27.5625 L27.5625,27.5625 L27.5625,26.25 Z" fill="#000000" mask="url(#mask-2)"></path>
                    </g>
                </g>
            </g>
        </g>
    </g>
</svg>