<?xml version="1.0" encoding="UTF-8"?>
<svg width="199px" height="174px" viewBox="0 0 199 174" version="1.1" xmlns="http://www.w3.org/2000/svg" xmlns:xlink="http://www.w3.org/1999/xlink">
    <title>C1C8B945-BEF1-40B4-B2F4-1B23B9A0025A</title>
    <g id="Mobile" stroke="none" stroke-width="1" fill="none" fill-rule="evenodd">
        <g id="Splash-Screen" transform="translate(-88.000000, -319.000000)" fill="#107CC0">
            <g id="Group" transform="translate(87.999900, 319.000000)">
                <path d="M106.0943,57.863 C106.1953,57.889 106.2993,57.906 106.4083,57.906 C107.0263,57.906 107.8393,57.464 108.8193,56.484 L128.4263,36.911 C130.4823,34.863 131.1153,31.757 130.0053,29.179 C125.1643,17.967 116.9173,11.455 106.0943,10.262 L106.0943,57.863 Z M90.5443,11.798 C89.8313,11.798 89.1223,11.937 88.4453,12.206 C85.2753,13.472 82.4073,15.317 79.9313,17.686 C71.8553,25.422 67.6093,38.087 67.6391421,54.301 C67.6093,70.532 71.8553,83.202 79.9313,90.938 C84.3043,95.13 89.7263,97.607 96.0673,98.319 L96.0673,17.226 C96.0673,14.232 93.5873,11.798 90.5443,11.798 L90.5443,11.798 Z M99.4733,108.614 C89.3113,108.614 80.1453,104.979 72.9653,98.102 C62.8813,88.439 57.5683,73.292 57.6120289,54.301 C57.5683,35.332 62.8813,20.189 72.9653,10.522 C80.1503,3.645 89.3853,0.005 99.6703,0.005 L101.2663,0.035 L102.8583,0 C118.6143,0 131.6893,8.804 138.7293,24.155 C139.2493,25.292 139.9453,27.248 140.6053,29.236 C142.0823,33.713 140.9283,38.56 137.5873,41.887 L110.2043,69.214 C107.5553,71.852 106.0943,75.362 106.0943,79.089 L106.0943,91.416 C106.0943,92.895 106.6803,94.279 107.7473,95.321 C108.7753,96.323 110.1603,96.895 111.5513,96.895 C112.1983,96.895 112.8463,96.774 113.4673,96.535 C116.7333,95.268 119.6813,93.385 122.2263,90.947 C124.1453,89.103 125.9163,86.756 127.6443,83.77 C128.1773,82.851 129.1603,82.282 130.2153,82.282 L130.5563,82.282 L131.4613,82.56 L135.1303,84.278 C135.8773,84.63 136.4473,85.28 136.6963,86.057 C136.9413,86.829 136.8573,87.675 136.4593,88.378 C134.1813,92.422 131.8023,95.602 129.1963,98.102 C122.0203,104.983 112.7933,108.619 102.5223,108.619 L99.4733,108.614 Z" id="Fill-1"></path>
                <path d="M6.566,165.3971 C6.566,169.1291 7.275,169.8841 9.353,169.8841 L17.43,169.8841 L17.43,173.5691 L7.275,173.5691 C1.984,173.5691 0,170.7351 0,165.3971 L0,148.9121 C0,143.2911 2.031,140.4571 7.275,140.4571 L17.336,140.4571 L17.336,144.2361 L9.353,144.2361 C7.18,144.2361 6.566,144.9441 6.566,148.9121 L6.566,165.3971 Z" id="Fill-3"></path>
                <path d="M26.9703,165.8224 C26.9703,169.5074 27.4433,169.8844 30.2293,169.8844 L32.1663,169.8844 C35.0003,169.8844 35.4733,169.5074 35.4733,165.8224 L35.4733,155.1474 C35.4733,151.4154 35.0003,151.1324 32.1663,151.1324 L30.2293,151.1324 C27.4433,151.1324 26.9703,151.4154 26.9703,155.1474 L26.9703,165.8224 Z M34.4813,147.3534 C40.3853,147.3534 41.8973,149.5264 41.8973,155.3834 L41.8973,165.5394 C41.8973,171.3964 40.3853,173.5694 34.4813,173.5694 L27.8673,173.5694 C22.0113,173.5694 20.5463,171.3964 20.5463,165.5394 L20.5463,155.3834 C20.5463,149.5264 22.0113,147.3534 27.8673,147.3534 L34.4813,147.3534 Z" id="Fill-6"></path>
                <path d="M57.0582,151.1325 L52.6652,151.1325 L52.6652,173.5695 L46.2422,173.5695 L46.2422,146.2675 C46.2422,141.2135 47.9892,139.5125 52.8542,139.5125 L57.0582,139.5125 L57.0582,143.1025 L54.0822,143.1025 C53.0902,143.1025 52.6652,143.4335 52.6652,144.6615 L52.6652,147.3535 L57.0582,147.3535 L57.0582,151.1325 Z" id="Fill-9"></path>
                <path d="M70.6129,151.1325 L66.2199,151.1325 L66.2199,173.5695 L59.7969,173.5695 L59.7969,146.2675 C59.7969,141.2135 61.5449,139.5125 66.4089,139.5125 L70.6129,139.5125 L70.6129,143.1025 L67.6369,143.1025 C66.6449,143.1025 66.2199,143.4335 66.2199,144.6615 L66.2199,147.3535 L70.6129,147.3535 L70.6129,151.1325 Z" id="Fill-12"></path>
                <path d="M80.815,162.9884 L80.815,159.3984 L83.176,159.3984 C85.963,159.3984 86.388,158.9264 86.388,156.7534 L86.388,153.9664 C86.388,151.4154 85.963,151.1324 83.176,151.1324 L82.232,151.1324 C79.398,151.1324 78.925,151.4154 78.925,155.1474 L78.925,165.8224 C78.925,169.5074 79.398,169.8844 82.232,169.8844 L90.876,169.8844 L90.876,173.5694 L79.918,173.5694 C74.013,173.5694 72.502,171.3964 72.502,165.5394 L72.502,155.3834 C72.502,149.5264 74.013,147.3534 79.918,147.3534 L85.492,147.3534 C91.396,147.3534 92.86,149.5264 92.86,153.5414 L92.86,156.8004 C92.86,160.8154 91.396,162.9884 85.492,162.9884 L80.815,162.9884 Z" id="Fill-15"></path>
                <path d="M108.9186,160.485 L105.6596,160.485 L105.6596,156.8 L108.1156,156.8 C110.0526,156.8 110.5716,155.714 110.5716,150.471 C110.5716,145.322 110.0526,144.236 108.1156,144.236 L103.1086,144.236 L103.1086,173.569 L96.4486,173.569 L96.4486,140.457 L108.9186,140.457 C115.5316,140.457 117.0906,142.299 117.0906,150.66 C117.0906,159.021 115.5316,160.485 108.9186,160.485" id="Fill-18"></path>
                <path d="M128.0475,162.9884 L128.0475,159.3984 L130.4085,159.3984 C133.1955,159.3984 133.6205,158.9264 133.6205,156.7534 L133.6205,153.9664 C133.6205,151.4154 133.1955,151.1324 130.4085,151.1324 L129.4645,151.1324 C126.6305,151.1324 126.1575,151.4154 126.1575,155.1474 L126.1575,165.8224 C126.1575,169.5074 126.6305,169.8844 129.4645,169.8844 L138.1085,169.8844 L138.1085,173.5694 L127.1505,173.5694 C121.2455,173.5694 119.7345,171.3964 119.7345,165.5394 L119.7345,155.3834 C119.7345,149.5264 121.2455,147.3534 127.1505,147.3534 L132.7235,147.3534 C138.6275,147.3534 140.0925,149.5264 140.0925,153.5414 L140.0925,156.8004 C140.0925,160.8154 138.6275,162.9884 132.7235,162.9884 L128.0475,162.9884 Z" id="Fill-20"></path>
                <path d="M152.9859,151.1325 C150.1989,151.1325 149.7269,151.4155 149.7269,155.1475 L149.7269,166.5785 C149.7269,169.4595 150.1989,169.8845 152.9859,169.8845 L157.4259,169.8845 L157.4259,139.5125 L163.8969,139.5125 L163.8969,173.5695 L150.6249,173.5695 C144.9089,173.5695 143.3019,171.5855 143.3019,165.5395 L143.3019,155.3835 C143.3019,149.5265 144.7669,147.3535 150.6249,147.3535 L155.2069,147.3535 L155.2069,151.1325 L152.9859,151.1325 Z" id="Fill-23"></path>
                <path d="M168.7141,173.569 L175.1381,173.569 L175.1381,147.354 L168.7141,147.354 L168.7141,173.569 Z M168.7141,144 L175.1381,144 L175.1381,139.465 L168.7141,139.465 L168.7141,144 Z" id="Fill-26"></path>
                <path d="M190.4889,157.509 L190.4889,161.099 L188.8829,161.099 C186.0489,161.099 185.5769,161.618 185.5769,163.791 L185.5769,167.051 C185.5769,169.507 186.0489,169.884 188.8829,169.884 L192.3789,169.884 L192.3789,155.147 C192.3789,151.416 191.9529,151.133 189.0719,151.133 L182.6479,151.133 L182.6479,147.354 L191.4329,147.354 C197.2909,147.354 198.8489,149.527 198.8489,155.384 L198.8489,173.569 L186.5679,173.569 C180.6639,173.569 179.1529,171.396 179.1529,167.382 L179.1529,163.697 C179.1529,159.682 180.6639,157.509 186.5679,157.509 L190.4889,157.509 Z" id="Fill-28"></path>
            </g>
        </g>
    </g>
</svg>