<?xml version="1.0" encoding="UTF-8"?>
<svg width="182px" height="174px" viewBox="0 0 182 174" version="1.1" xmlns="http://www.w3.org/2000/svg" xmlns:xlink="http://www.w3.org/1999/xlink">
    <title>F0B19033-8547-4930-A549-B28FE2C21DCE</title>
    <g id="Mobile" stroke="none" stroke-width="1" fill="none" fill-rule="evenodd">
        <g id="Splash-Screen" transform="translate(-97.000000, -319.000000)" fill="#FFD008">
            <g id="Logo-Yellow" transform="translate(97.000000, 319.000000)">
                <path d="M97.9079677,59.7743834 C98.0121776,59.8011529 98.1202116,59.819318 98.233504,59.819318 C98.8702357,59.819318 99.7106068,59.3618463 100.72259,58.3489075 L120.978019,38.1298079 C123.100936,36.0140612 123.756311,32.8050673 122.609047,30.142458 C117.608408,18.5608247 109.088537,11.8325974 97.9079677,10.6002443 L97.9079677,59.7743834 Z M81.8443551,12.1868153 C81.1077158,12.1868153 80.3758567,12.3302233 79.6755475,12.6084349 C76.4010639,13.9172723 73.4377757,15.8222091 70.8808104,18.2692283 C62.5373306,26.2608804 58.1509566,39.344474 58.1818644,56.0945331 C58.1509566,72.8622793 62.5373306,85.9501751 70.8808104,93.9423052 C75.3981636,98.2717939 80.9996817,100.831149 87.5496049,101.566355 L87.5496049,17.7940697 C87.5496049,14.7012363 84.9883373,12.1868153 81.8443551,12.1868153 L81.8443551,12.1868153 Z M91.0683602,112.202451 C80.5699356,112.202451 71.1021368,108.446594 63.6845949,101.34216 C53.2674348,91.3604824 47.7792091,75.7132311 47.8238699,56.0945331 C47.7792091,36.4983024 53.2674348,20.8553533 63.6845949,10.8693734 C71.106917,3.76493909 80.647376,0.00430224122 91.2719997,0.00430224122 L92.9207141,0.0358520102 L94.5651263,-2.84217094e-14 C110.841461,-2.84217094e-14 124.348108,9.09398188 131.620808,24.952043 C132.15811,26.1265549 132.876584,28.1481302 133.558729,30.2007773 C135.085546,34.8266427 133.892869,39.8330174 130.441994,43.2709861 L102.15428,71.4999029 C99.4166203,74.2246556 97.9079677,77.850967 97.9079677,81.7014729 L97.9079677,94.4351508 C97.9079677,95.9638805 98.5136277,97.3931807 99.6154795,98.469219 C100.677177,99.504625 102.108867,100.096422 103.545816,100.096422 C104.214097,100.096422 104.882857,99.9707012 105.524369,99.7240393 C108.89876,98.415202 111.943313,96.4701109 114.57246,93.9509097 C116.555793,92.0459729 118.385202,89.6214209 120.169198,86.53767 C120.720841,85.5873527 121.737126,85.0003358 122.825593,85.0003358 L123.177899,85.0003358 L124.112919,85.2871519 L127.903194,87.0615874 C128.675685,87.4248878 129.26318,88.0974715 129.520358,88.8996004 C129.773234,89.6974272 129.68719,90.5712602 129.276565,91.2973829 C126.922761,95.4748591 124.465703,98.7603373 121.773456,101.34216 C114.360216,108.450897 104.82884,112.207231 94.2171228,112.207231 L91.0683602,112.202451 Z" id="Fill-1"></path>
                <g id="Group-3" transform="translate(0.000000, 140.000000)">
                    <path d="M6.44332327,25.4482826 C6.44332327,29.110446 7.13837424,29.8518655 9.1781146,29.8518655 L17.104755,29.8518655 L17.104755,33.4676603 L7.13837424,33.4676603 C1.94700316,33.4676603 0,30.6865003 0,25.4482826 L0,9.2708996 C0,3.75447031 1.99289374,0.973310372 7.13837424,0.973310372 L17.0115398,0.973310372 L17.0115398,4.6818423 L9.1781146,4.6818423 C7.04611506,4.6818423 6.44332327,5.37689327 6.44332327,9.2708996 L6.44332327,25.4482826 Z" id="Fill-3"></path>
                    <path d="M26.4686308,25.8656478 C26.4686308,29.4809645 26.9323168,29.8519133 29.6666302,29.8519133 L31.5677427,29.8519133 C34.3484247,29.8519133 34.8121107,29.4809645 34.8121107,25.8656478 L34.8121107,15.3892124 C34.8121107,11.7275271 34.3484247,11.4493155 31.5677427,11.4493155 L29.6666302,11.4493155 C26.9323168,11.4493155 26.4686308,11.7275271 26.4686308,15.3892124 L26.4686308,25.8656478 Z M33.8388481,7.74078361 C39.633011,7.74078361 41.1168061,9.87326118 41.1168061,15.6210554 L41.1168061,25.5874362 C41.1168061,31.3352305 39.633011,33.4677081 33.8388481,33.4677081 L27.3491562,33.4677081 C21.6013619,33.4677081 20.1644134,31.3352305 20.1644134,25.5874362 L20.1644134,15.6210554 C20.1644134,9.87326118 21.6013619,7.74078361 27.3491562,7.74078361 L33.8388481,7.74078361 Z" id="Fill-6"></path>
                    <path d="M55.9965854,11.449459 L51.6852617,11.449459 L51.6852617,33.4678515 L45.3815223,33.4678515 L45.3815223,6.67492725 C45.3815223,1.71492115 47.0966824,0.0466076132 51.8707361,0.0466076132 L55.9965854,0.0466076132 L55.9965854,3.56918712 L53.0763197,3.56918712 C52.1025791,3.56918712 51.6852617,3.89376732 51.6852617,5.09887288 L51.6852617,7.74092702 L55.9965854,7.74092702 L55.9965854,11.449459 Z" id="Fill-9"></path>
                    <path d="M66.0094782,23.0842967 L66.0094782,19.5612392 L68.3274302,19.5612392 C71.0617435,19.5612392 71.4790609,19.0980312 71.4790609,16.9655536 L71.4790609,14.2307623 C71.4790609,11.727814 71.0617435,11.4496024 68.3274302,11.4496024 L67.4000582,11.4496024 C64.6188983,11.4496024 64.1552123,11.727814 64.1552123,15.3894993 L64.1552123,25.8654566 C64.1552123,29.4812514 64.6188983,29.8522002 67.4000582,29.8522002 L75.8826438,29.8522002 L75.8826438,33.4675169 L65.1284748,33.4675169 C59.334312,33.4675169 57.8509948,31.3355173 57.8509948,25.587245 L57.8509948,15.6213423 C57.8509948,9.87354799 59.334312,7.74107043 65.1284748,7.74107043 L70.5985355,7.74107043 C76.3926984,7.74107043 77.829647,9.87354799 77.829647,13.8134449 L77.829647,17.0119222 C77.829647,20.9522972 76.3926984,23.0842967 70.5985355,23.0842967 L66.0094782,23.0842967 Z" id="Fill-12"></path>
                    <path d="M93.590334,20.6276214 L90.3923347,20.6276214 L90.3923347,17.0118266 L92.8025459,17.0118266 C94.7027024,17.0118266 95.213235,15.9458269 95.213235,10.8003464 C95.213235,5.74808108 94.7027024,4.68160329 92.8025459,4.68160329 L87.8889084,4.68160329 L87.8889084,33.4674213 L81.3528479,33.4674213 L81.3528479,0.973549385 L93.590334,0.973549385 C100.080026,0.973549385 101.609712,2.78144675 101.609712,10.9858208 C101.609712,19.1906728 100.080026,20.6276214 93.590334,20.6276214" id="Fill-14"></path>
                    <path d="M112.364072,23.0842967 L112.364072,19.5612392 L114.682024,19.5612392 C117.416337,19.5612392 117.833655,19.0980312 117.833655,16.9655536 L117.833655,14.2307623 C117.833655,11.727814 117.416337,11.4496024 114.682024,11.4496024 L113.754652,11.4496024 C110.973492,11.4496024 110.509806,11.727814 110.509806,15.3894993 L110.509806,25.8654566 C110.509806,29.4812514 110.973492,29.8522002 113.754652,29.8522002 L122.237237,29.8522002 L122.237237,33.4675169 L111.483068,33.4675169 C105.688906,33.4675169 104.205588,31.3355173 104.205588,25.587245 L104.205588,15.6213423 C104.205588,9.87354799 105.688906,7.74107043 111.483068,7.74107043 L116.953129,7.74107043 C122.747292,7.74107043 124.184241,9.87354799 124.184241,13.8134449 L124.184241,17.0119222 C124.184241,20.9522972 122.747292,23.0842967 116.953129,23.0842967 L112.364072,23.0842967 Z" id="Fill-16"></path>
                    <path d="M136.83914,11.449459 C134.104348,11.449459 133.64114,11.7276705 133.64114,15.3893559 L133.64114,26.6072108 C133.64114,29.4347394 134.104348,29.8520568 136.83914,29.8520568 L141.196354,29.8520568 L141.196354,0.0466076132 L147.54694,0.0466076132 L147.54694,33.4678515 L134.521188,33.4678515 C128.912977,33.4678515 127.336445,31.5208483 127.336445,25.5875796 L127.336445,15.6211989 C127.336445,9.87340458 128.773872,7.74092702 134.521188,7.74092702 L139.017986,7.74092702 L139.017986,11.449459 L136.83914,11.449459 Z" id="Fill-18"></path>
                    <path d="M152.275677,33.4676125 L158.579894,33.4676125 L158.579894,7.74116603 L152.275677,7.74116603 L152.275677,33.4676125 Z M152.275677,4.4499515 L158.579894,4.4499515 L158.579894,0 L152.275677,0 L152.275677,4.4499515 Z" id="Fill-21"></path>
                    <path d="M173.644861,17.7072122 L173.644861,21.2302697 L172.068807,21.2302697 C169.287647,21.2302697 168.823961,21.7403243 168.823961,23.8723239 L168.823961,27.0708012 C168.823961,29.4810123 169.287647,29.8519611 172.068807,29.8519611 L175.499127,29.8519611 L175.499127,15.3892602 C175.499127,11.7275749 175.08181,11.4493633 172.254281,11.4493633 L165.950064,11.4493633 L165.950064,7.74083141 L174.571755,7.74083141 C180.320027,7.74083141 181.849713,9.87330898 181.849713,15.6211032 L181.849713,33.4677559 L169.797223,33.4677559 C164.003061,33.4677559 162.520221,31.3352783 162.520221,27.3953814 L162.520221,23.7795867 C162.520221,19.8392117 164.003061,17.7072122 169.797223,17.7072122 L173.644861,17.7072122 Z" id="Fill-23"></path>
                </g>
            </g>
        </g>
    </g>
</svg>