<?xml version="1.0" encoding="UTF-8"?>
<svg width="16px" height="17px" viewBox="0 0 16 17" version="1.1" xmlns="http://www.w3.org/2000/svg" xmlns:xlink="http://www.w3.org/1999/xlink">
    <title>8BDD2015-E1A9-46BA-A293-3DE5DCF5481A</title>
    <g id="Mobile" stroke="none" stroke-width="1" fill="none" fill-rule="evenodd">
        <g id="Checkout-items" transform="translate(-287.000000, -291.000000)" fill="#E02020">
            <g id="Group-17" transform="translate(144.000000, 288.000000)">
                <g id="Group-11" transform="translate(143.320506, 3.000000)">
                    <path d="M5.40260545,6.41559398 L5.40260545,12.4935251 C5.40260545,12.6834605 5.25487796,12.831188 5.06494261,12.831188 L4.38961693,12.831188 C4.19968158,12.831188 4.05195409,12.6834605 4.05195409,12.4935251 L4.05195409,6.41559398 C4.05195409,6.22565863 4.19968158,6.07793114 4.38961693,6.07793114 L5.06494261,6.07793114 C5.25487796,6.07793114 5.40260545,6.22565863 5.40260545,6.41559398 Z M8.10390818,6.41559398 L8.10390818,12.4935251 C8.10390818,12.6834605 7.95618069,12.831188 7.76624534,12.831188 L7.09091966,12.831188 C6.90098431,12.831188 6.75325682,12.6834605 6.75325682,12.4935251 L6.75325682,6.41559398 C6.75325682,6.22565863 6.90098431,6.07793114 7.09091966,6.07793114 L7.76624534,6.07793114 C7.95618069,6.07793114 8.10390818,6.22565863 8.10390818,6.41559398 Z M10.8052109,6.41559398 L10.8052109,12.4935251 C10.8052109,12.6834605 10.6574834,12.831188 10.4675481,12.831188 L9.79222239,12.831188 C9.60228704,12.831188 9.45455955,12.6834605 9.45455955,12.4935251 L9.45455955,6.41559398 C9.45455955,6.22565863 9.60228704,6.07793114 9.79222239,6.07793114 L10.4675481,6.07793114 C10.6574834,6.07793114 10.8052109,6.22565863 10.8052109,6.41559398 Z M12.1558623,14.0552158 L12.1558623,4.05195409 L2.70130273,4.05195409 L2.70130273,14.0552158 C2.70130273,14.56171 2.98620575,14.857165 3.03896557,14.857165 L11.8181994,14.857165 C11.8709593,14.857165 12.1558623,14.56171 12.1558623,14.0552158 Z M5.06494261,2.70130273 L9.79222239,2.70130273 L9.28572813,1.46672297 C9.25407223,1.42451511 9.15910456,1.36120333 9.10634474,1.35065136 L5.76137222,1.35065136 C5.69806044,1.36120333 5.61364473,1.42451511 5.58198884,1.46672297 L5.06494261,2.70130273 Z M14.857165,3.03896557 L14.857165,3.71429125 C14.857165,3.9042266 14.7094375,4.05195409 14.5195022,4.05195409 L13.5065136,4.05195409 L13.5065136,14.0552158 C13.5065136,15.2159318 12.7467722,16.2078164 11.8181994,16.2078164 L3.03896557,16.2078164 C2.11039276,16.2078164 1.35065136,15.2581396 1.35065136,14.0974236 L1.35065136,4.05195409 L0.337662841,4.05195409 C0.147727493,4.05195409 0,3.9042266 0,3.71429125 L0,3.03896557 C0,2.84903022 0.147727493,2.70130273 0.337662841,2.70130273 L3.59821965,2.70130273 L4.33685711,0.939124776 C4.54789639,0.422078551 5.18101422,0 5.7402683,0 L9.1168967,0 C9.67615078,0 10.3092686,0.422078551 10.5203079,0.939124776 L11.2589454,2.70130273 L14.5195022,2.70130273 C14.7094375,2.70130273 14.857165,2.84903022 14.857165,3.03896557 Z" id="Delete"></path>
                </g>
            </g>
        </g>
    </g>
</svg>