<?xml version="1.0" encoding="UTF-8"?>
<svg width="16px" height="13px" viewBox="0 0 16 13" version="1.1" xmlns="http://www.w3.org/2000/svg" xmlns:xlink="http://www.w3.org/1999/xlink">
    <title>DEA1C9D3-692E-402F-AD9C-86BDE289F41C</title>
    <g id="Mobile" stroke="none" stroke-width="1" fill="none" fill-rule="evenodd">
        <g id="About-Coffepedia" transform="translate(-15.000000, -1600.000000)">
            <g id="Group-6" transform="translate(15.000000, 1555.000000)">
                <g id="Group-36" transform="translate(0.000000, 39.000000)">
                    <g id="email" transform="translate(1.000000, 7.000000)">
                        <path d="M12.6201923,9.82692308 L12.6201923,2.82692308 L7,6.31009615 L1.37980769,2.82692308 L1.37980769,9.82692308 L12.6201923,9.82692308 Z M12.6201923,0 C13.0016045,0 13.3269217,0.140222957 13.5961538,0.420673077 C13.865386,0.701123197 14,1.03204937 14,1.41346154 L14,9.82692308 C14,10.2083352 13.865386,10.5392614 13.5961538,10.8197115 C13.3269217,11.1001617 13.0016045,11.2403846 12.6201923,11.2403846 L1.37980769,11.2403846 C0.998395529,11.2403846 0.673078269,11.1001617 0.403846154,10.8197115 C0.134614038,10.5392614 0,10.2083352 0,9.82692308 L0,1.41346154 C0,1.03204937 0.134614038,0.701123197 0.403846154,0.420673077 C0.673078269,0.140222957 0.998395529,0 1.37980769,0 L12.6201923,0 Z" id="mail" stroke="#FFFFFF" stroke-width="0.5" fill="#838A93"></path>
                        <polygon id="Path" fill="#FFFFFF" points="7 4.93028846 12.6201923 1.41346154 1.37980769 1.41346154"></polygon>
                    </g>
                </g>
            </g>
        </g>
    </g>
</svg>