<?xml version="1.0" encoding="UTF-8"?>
<svg width="20px" height="20px" viewBox="0 0 20 20" version="1.1" xmlns="http://www.w3.org/2000/svg" xmlns:xlink="http://www.w3.org/1999/xlink">
    <title>5E49CE9D-4345-469F-9D08-70E5E92659BE</title>
    <g id="Mobile" stroke="none" stroke-width="1" fill="none" fill-rule="evenodd">
        <g id="login" transform="translate(-42.000000, -274.000000)" fill="#FFFFFF">
            <g id="Facebook-btn" transform="translate(24.000000, 264.000000)">
                <path d="M33.6814303,10 C35.6793049,10 37.3002219,11.6209171 37.3002219,13.6187916 L37.3002219,25.6814303 C37.3002219,27.6793049 35.6793049,29.3002219 33.6814303,29.3002219 L31.3191636,29.3002219 L31.3191636,21.823899 L33.8196481,21.823899 L34.1966055,18.9087613 L31.3191636,18.9087613 L31.3191636,17.0491045 C31.3191636,16.2072328 31.5453381,15.6417966 32.7641672,15.6417966 L34.2971275,15.6292314 L34.2971275,13.0282249 C34.0332573,12.9905292 33.1159941,12.9151377 32.0605133,12.9151377 C29.8364642,12.9151377 28.3035039,14.2721845 28.3035039,16.7601038 L28.3035039,18.9087613 L25.7904542,18.9087613 L25.7904542,21.823899 L28.3035039,21.823899 L28.3035039,29.3002219 L21.6187916,29.3002219 C19.6209171,29.3002219 18,27.6793049 18,25.6814303 L18,13.6187916 C18,11.6209171 19.6209171,10 21.6187916,10 L33.6814303,10 Z" id="facebook-square---FontAwesome"></path>
            </g>
        </g>
    </g>
</svg>