<?xml version="1.0" encoding="UTF-8"?>
<svg width="22px" height="20px" viewBox="0 0 22 20" version="1.1" xmlns="http://www.w3.org/2000/svg" xmlns:xlink="http://www.w3.org/1999/xlink">
    <title>8CAB5B89-9DD5-4700-B225-257D4C6CC9D8</title>
    <defs>
        <path d="M7.33509541,9.9239677 L0.218489625,1.50858136 C-0.285364741,0.912773571 0.138136404,0 0.918428748,0 L19.2517621,0 C20.0320544,0 20.4555556,0.912773571 19.9517012,1.50858136 L12.8350954,9.9239677 L12.8350954,17.4166667 C12.8350954,18.0981002 12.1179756,18.5413046 11.508483,18.2365583 L7.84181629,16.4032249 C7.53126426,16.2479489 7.33509541,15.9305411 7.33509541,15.5833333 L7.33509541,9.9239677 Z M17.2760671,1.83333333 L2.89412378,1.83333333 L8.9517012,8.99641864 C9.09164342,9.16190032 9.16842875,9.37161229 9.16842875,9.58833333 L9.16842875,15.0168022 L11.0017621,15.9334688 L11.0017621,9.58833333 C11.0017621,9.37161229 11.0785474,9.16190032 11.2184896,8.99641864 L17.2760671,1.83333333 Z" id="path-1"></path>
    </defs>
    <g id="Mobile" stroke="none" stroke-width="1" fill="none" fill-rule="evenodd">
        <g id="Category-screen" transform="translate(-274.000000, -228.000000)">
            <g id="Filter-btn" transform="translate(259.000000, 218.000000)">
                <g id="filter" transform="translate(15.916667, 10.833333)">
                    <mask id="mask-2" fill="white">
                        <use xlink:href="#path-1"></use>
                    </mask>
                    <use id="Shape" fill="#107CC0" fill-rule="nonzero" xlink:href="#path-1"></use>
                </g>
            </g>
        </g>
    </g>
</svg>