<?xml version="1.0" encoding="UTF-8"?>
<svg width="24px" height="18px" viewBox="0 0 24 18" version="1.1" xmlns="http://www.w3.org/2000/svg" xmlns:xlink="http://www.w3.org/1999/xlink">
    <title>E9605E14-45C6-4D5E-9A63-FB9A45E486AA</title>
    <g id="Mobile" stroke="none" stroke-width="1" fill="none" fill-rule="evenodd">
        <g id="Product-screen" transform="translate(-335.000000, -66.000000)" fill="#000000">
            <path d="M345.707,66.2925 C346.098,66.6825 346.098,67.3225 345.707,67.7125 L342.414,71.0025 L351.586,71.0025 L348.293,67.7125 C347.902,67.3225 347.902,66.6825 348.293,66.2925 C348.684,65.9025 349.316,65.9025 349.707,66.2925 L354.414,71.0025 L358,71.0025 C358.552,71.0025 359,71.4525 359,72.0025 C359,72.5525 358.552,73.0025 358,73.0025 L357.834,73.0025 L356.282,81.5425 C356.023,82.9625 354.781,84.0025 353.331,84.0025 L340.669,84.0025 C339.219,84.0025 337.977,82.9625 337.718,81.5425 L336.166,73.0025 L336,73.0025 C335.448,73.0025 335,72.5525 335,72.0025 C335,71.4525 335.448,71.0025 336,71.0025 L339.586,71.0025 L344.293,66.2925 C344.684,65.9025 345.316,65.9025 345.707,66.2925 Z M338.198,73.0025 L339.685,81.1825 C339.771,81.6525 340.186,82.0025 340.669,82.0025 L353.331,82.0025 C353.814,82.0025 354.228,81.6525 354.314,81.1825 L355.802,73.0025 L338.198,73.0025 Z M342.335,75.0125 C342.88,74.9225 343.396,75.2925 343.486,75.8425 L343.986,78.8425 C344.077,79.3825 343.709,79.9025 343.165,79.9925 C342.62,80.0825 342.104,79.7125 342.014,79.1625 L341.514,76.1625 C341.423,75.6225 341.791,75.1025 342.335,75.0125 Z M351.665,75.0125 C352.209,75.1025 352.577,75.6225 352.486,76.1625 L351.986,79.1625 C351.896,79.7125 351.38,80.0825 350.835,79.9925 C350.291,79.9025 349.923,79.3825 350.014,78.8425 L350.514,75.8425 C350.604,75.2925 351.12,74.9225 351.665,75.0125 Z M347,75.0025 C347.552,75.0025 348,75.4525 348,76.0025 L348,79.0025 C348,79.5525 347.552,80.0025 347,80.0025 C346.448,80.0025 346,79.5525 346,79.0025 L346,76.0025 C346,75.4525 346.448,75.0025 347,75.0025 L347,75.0025 Z" id="Shopping-Basket"></path>
        </g>
    </g>
</svg>