<?xml version="1.0" encoding="UTF-8"?>
<svg width="12px" height="16px" viewBox="0 0 12 16" version="1.1" xmlns="http://www.w3.org/2000/svg" xmlns:xlink="http://www.w3.org/1999/xlink">
    <title>CA0FFE06-0746-4669-AE88-BB2EA6C43293</title>
    <g id="Mobile" stroke="none" stroke-width="1" fill="none" fill-rule="evenodd">
        <g id="About-Coffepedia" transform="translate(-55.000000, -1382.000000)" fill="#838A93">
            <g id="Group-3" transform="translate(16.000000, 1328.000000)">
                <g id="Group-5" transform="translate(21.000000, 35.000000)">
                    <path d="M24.0625,19 C25,19 25.838538,19.1614567 26.578125,19.484375 C27.317712,19.8072933 27.9401016,20.247393 28.4453125,20.8046875 C28.9505234,21.361982 29.3359362,22.010413 29.6015625,22.75 C29.8671888,23.489587 30,24.2708292 30,25.09375 C30,25.9270875 29.8359391,26.7786415 29.5078125,27.6484375 C29.1796859,28.5182335 28.7656275,29.3723916 28.265625,30.2109375 C27.7656225,31.0494834 27.2239613,31.8437462 26.640625,32.59375 C26.0572887,33.3437538 25.5104192,34.0104137 25,34.59375 C25,34.6041667 24.9218758,34.6744785 24.765625,34.8046875 C24.6093742,34.9348965 24.4270844,35 24.21875,35 L24.171875,35 C23.9531239,35 23.7682299,34.9348965 23.6171875,34.8046875 C23.4661451,34.6744785 23.390625,34.6041667 23.390625,34.59375 C22.8489556,33.9687469 22.263024,33.286462 21.6328125,32.546875 C21.002601,31.807288 20.4192735,31.0286499 19.8828125,30.2109375 C19.3463515,29.3932251 18.8984393,28.5520877 18.5390625,27.6875 C18.1796857,26.8229123 18,25.9583377 18,25.09375 C18,24.2708292 18.1614567,23.489587 18.484375,22.75 C18.8072933,22.010413 19.2447889,21.361982 19.796875,20.8046875 C20.3489611,20.247393 20.9921838,19.8072933 21.7265625,19.484375 C22.4609412,19.1614567 23.2395792,19 24.0625,19 Z M24.25,33.921875 C25.0416706,33.0156205 25.734372,32.1510458 26.328125,31.328125 C26.921878,30.5052042 27.4166647,29.7265662 27.8125,28.9921875 C28.2083353,28.2578088 28.5052073,27.5651074 28.703125,26.9140625 C28.9010427,26.2630176 29,25.6562528 29,25.09375 C29,24.4583302 28.9036468,23.8359405 28.7109375,23.2265625 C28.5182282,22.6171845 28.218752,22.0729191 27.8125,21.59375 C27.406248,21.1145809 26.8932323,20.7291681 26.2734375,20.4375 C25.6536427,20.1458319 24.9166709,20 24.0625,20 C23.3749966,20 22.7239614,20.1354153 22.109375,20.40625 C21.4947886,20.6770847 20.9583356,21.0442685 20.5,21.5078125 C20.0416644,21.9713565 19.6770847,22.5130177 19.40625,23.1328125 C19.1354153,23.7526073 19,24.4062466 19,25.09375 C19,25.833337 19.1562484,26.5833295 19.46875,27.34375 C19.7812516,28.1041705 20.1770809,28.8515588 20.65625,29.5859375 C21.1354191,30.3203162 21.6614555,31.0286424 22.234375,31.7109375 C22.8072945,32.3932326 23.3489558,33.031247 23.859375,33.625 L24.125,33.921875 L24.1875,33.984375 C24.1979167,33.9739583 24.2109374,33.9635417 24.2265625,33.953125 C24.2421876,33.9427083 24.25,33.9322917 24.25,33.921875 Z M24.015625,22.015625 C24.8489625,22.015625 25.5572887,22.3098929 26.140625,22.8984375 C26.7239613,23.4869821 27.015625,24.1927042 27.015625,25.015625 C27.015625,25.8489625 26.7239613,26.5572887 26.140625,27.140625 C25.5572887,27.7239613 24.8489625,28.015625 24.015625,28.015625 C23.1927042,28.015625 22.4869821,27.7239613 21.8984375,27.140625 C21.3098929,26.5572887 21.015625,25.8489625 21.015625,25.015625 C21.015625,24.1927042 21.3098929,23.4869821 21.8984375,22.8984375 C22.4869821,22.3098929 23.1927042,22.015625 24.015625,22.015625 Z M24.015625,27.015625 C24.5677111,27.015625 25.0364564,26.8177103 25.421875,26.421875 C25.8072936,26.0260397 26,25.5520861 26,25 C26,24.4479139 25.8046895,23.9765645 25.4140625,23.5859375 C25.0234355,23.1953105 24.5520861,23 24,23 C23.4479139,23 22.9765645,23.1953105 22.5859375,23.5859375 C22.1953105,23.9765645 22,24.4479139 22,25 C22,25.5520861 22.1979147,26.0260397 22.59375,26.421875 C22.9895853,26.8177103 23.4635389,27.015625 24.015625,27.015625 Z" id="location-pin-"></path>
                </g>
            </g>
        </g>
    </g>
</svg>