<?xml version="1.0" encoding="UTF-8"?>
<svg width="188px" height="52px" viewBox="0 0 188 52" version="1.1" xmlns="http://www.w3.org/2000/svg" xmlns:xlink="http://www.w3.org/1999/xlink">
    <title>15767E23-97E2-46DF-A4C1-FB6A226A00CE</title>
    <defs>
        <polygon id="path-1" points="7.69638132e-17 0 39.5821327 0 39.5821327 51.4120529 7.69638132e-17 51.4120529"></polygon>
    </defs>
    <g id="Mobile" stroke="none" stroke-width="1" fill="none" fill-rule="evenodd">
        <g id="login" transform="translate(-24.000000, -83.000000)">
            <g id="Logo-Blue" transform="translate(24.000135, 83.000110)">
                <g id="Group-3">
                    <mask id="mask-2" fill="white">
                        <use xlink:href="#path-1"></use>
                    </mask>
                    <g id="Clip-2"></g>
                    <path d="M22.9477857,27.3879881 C22.9955336,27.4002536 23.0450336,27.4085766 23.096943,27.4085766 C23.3889057,27.4085766 23.7737358,27.1989679 24.2374155,26.7348501 L33.5184575,17.4706733 C34.4911555,16.5012606 34.7912223,15.0309337 34.2655579,13.8109544 C31.9743185,8.50437287 28.0708227,5.42157056 22.9477857,4.85691945 L22.9477857,27.3879881 Z M15.5876089,5.58386942 C15.2500886,5.58386942 14.9149776,5.64957747 14.5941033,5.77705107 C13.0935506,6.37652744 11.7358034,7.24956829 10.5642291,8.37076652 C6.74133516,12.0324567 4.73154518,18.0272204 4.74592351,25.7019197 C4.73154518,33.384723 6.74133516,39.381458 10.5642291,43.0433672 C12.6340324,45.027093 15.2005885,46.1997625 18.2019128,46.5366257 L18.2019128,8.15305387 C18.2019128,6.73595043 17.0283672,5.58386942 15.5876089,5.58386942 L15.5876089,5.58386942 Z M19.8141692,51.4099722 C15.0039024,51.4099722 10.6656385,49.6890786 7.2669995,46.4339022 C2.49396732,41.8604034 -0.0206794576,34.6909989 7.69638132e-17,25.7019197 C-0.0206794576,16.7231348 2.49396732,9.55570154 7.2669995,4.98001252 C10.6678287,1.72505513 15.0391658,0.00197124126 19.9072556,0.00197124126 L20.662679,0.0164270105 L21.4163503,0 C28.873775,0 35.0625965,4.16676598 38.3946513,11.4327613 C38.6410564,11.9709101 38.9702537,12.8971745 39.282805,13.8376756 C39.9821576,15.957198 39.4359047,18.2510658 37.8547502,19.8263066 L24.8936199,32.7604966 C23.6392533,34.0089494 22.9477857,35.6704868 22.9477857,37.4347477 L22.9477857,43.2691838 C22.9477857,43.9694125 23.2252927,44.6245217 23.7301495,45.117551 C24.216608,45.5919631 24.8728123,45.8631183 25.5309879,45.8631183 C25.8371873,45.8631183 26.1436059,45.8055142 26.4377589,45.6924964 C27.9836501,45.092801 29.3786318,44.2015809 30.5832792,43.0473097 C31.4920215,42.1744878 32.330237,41.0635839 33.1478641,39.6506419 C33.400402,39.2152166 33.866272,38.9462517 34.3649961,38.9462517 L34.5261998,38.9462517 L34.9548353,39.0776678 L36.6912798,39.8906953 C37.0452271,40.0571557 37.3144111,40.3653264 37.4324665,40.7328534 C37.5483317,41.0984091 37.5089069,41.4987901 37.3205438,41.8314919 C36.2422749,43.7455671 35.116258,45.2509384 33.8826991,46.4339022 C30.4860313,49.6910498 26.1188558,51.4121625 21.2568988,51.4121625 L19.8141692,51.4099722 Z" id="Fill-1" fill="#107CC0" mask="url(#mask-2)"></path>
                </g>
                <g id="Group" transform="translate(61.000000, 14.000000)" fill="#107CC0">
                    <path d="M4.48829733,17.7278327 C4.48829733,20.2788379 4.97278463,20.7955221 6.3933925,20.7955221 L11.9152773,20.7955221 L11.9152773,23.3141114 L4.97278463,23.3141114 C1.35599496,23.3141114 0,21.3768193 0,17.7278327 L0,6.45824634 C0,2.61542101 1.38841093,0.678128898 4.97278463,0.678128898 L11.8506644,0.678128898 L11.8506644,3.26133106 L6.3933925,3.26133106 C4.90817172,3.26133106 4.48829733,3.74581836 4.48829733,6.45824634 L4.48829733,17.7278327 Z" id="Fill-4"></path>
                    <path d="M18.4382242,18.0183936 C18.4382242,20.5372019 18.7612887,20.7954345 20.6663839,20.7954345 L21.990401,20.7954345 C23.9276931,20.7954345 24.2507576,20.5372019 24.2507576,18.0183936 L24.2507576,10.7206394 C24.2507576,8.1696342 23.9276931,7.97579548 21.990401,7.97579548 L20.6663839,7.97579548 C18.7612887,7.97579548 18.4382242,8.1696342 18.4382242,10.7206394 L18.4382242,18.0183936 Z M23.5724316,5.39259331 C27.6090956,5.39259331 28.6424641,6.87803312 28.6424641,10.8820622 L28.6424641,17.8247739 C28.6424641,21.828803 27.6090956,23.3142428 23.5724316,23.3142428 L19.0519373,23.3142428 C15.0479082,23.3142428 14.0467367,21.828803 14.0467367,17.8247739 L14.0467367,10.8820622 C14.0467367,6.87803312 15.0479082,5.39259331 19.0519373,5.39259331 L23.5724316,5.39259331 Z" id="Fill-6"></path>
                    <path d="M39.0079078,7.97588309 L36.0048312,7.97588309 L36.0048312,23.3141114 L31.6131247,23.3141114 L31.6131247,4.64974199 C31.6131247,1.19481314 32.8079159,0.0322188433 36.134057,0.0322188433 L39.0079078,0.0322188433 L39.0079078,2.48641422 L36.9735868,2.48641422 C36.2954798,2.48641422 36.0048312,2.71244988 36.0048312,3.55197964 L36.0048312,5.39268092 L39.0079078,5.39268092 L39.0079078,7.97588309 Z" id="Fill-8"></path>
                    <path d="M45.9825536,16.0809482 L45.9825536,13.6267528 L47.5972192,13.6267528 C49.5023144,13.6267528 49.792744,13.3039073 49.792744,11.8184675 L49.792744,9.91337232 C49.792744,8.16948088 49.5023144,7.97586118 47.5972192,7.97586118 L46.9513092,7.97586118 C45.013798,7.97586118 44.6909525,8.16948088 44.6909525,10.7204861 L44.6909525,18.0184593 C44.6909525,20.5370486 45.013798,20.7955002 46.9513092,20.7955002 L52.8606524,20.7955002 L52.8606524,23.3140895 L45.3690595,23.3140895 C41.3328335,23.3140895 40.299465,21.8288687 40.299465,17.8246206 L40.299465,10.8821279 C40.299465,6.8778798 41.3328335,5.39265902 45.3690595,5.39265902 L49.1794689,5.39265902 C53.2156949,5.39265902 54.2168664,6.8778798 54.2168664,9.62272375 L54.2168664,11.8508835 C54.2168664,14.5955084 53.2156949,16.0809482 49.1794689,16.0809482 L45.9825536,16.0809482 Z" id="Fill-10"></path>
                    <path d="M65.1959575,14.3694946 L62.9677978,14.3694946 L62.9677978,11.8506863 L64.6470763,11.8506863 C65.9708743,11.8506863 66.3261358,11.1081855 66.3261358,7.52381176 C66.3261358,4.00405097 65.9708743,3.26133106 64.6470763,3.26133106 L61.2241254,3.26133106 L61.2241254,23.3141114 L56.6709961,23.3141114 L56.6709961,0.678128898 L65.1959575,0.678128898 C69.7168898,0.678128898 70.7824552,1.93731401 70.7824552,7.65281855 C70.7824552,13.3685421 69.7168898,14.3694946 65.1959575,14.3694946" id="Fill-12"></path>
                    <path d="M78.2738072,16.0809482 L78.2738072,13.6267528 L79.8884728,13.6267528 C81.793568,13.6267528 82.0842166,13.3039073 82.0842166,11.8184675 L82.0842166,9.91337232 C82.0842166,8.16948088 81.793568,7.97586118 79.8884728,7.97586118 L79.2425628,7.97586118 C77.3050516,7.97586118 76.9822061,8.16948088 76.9822061,10.7204861 L76.9822061,18.0184593 C76.9822061,20.5370486 77.3050516,20.7955002 79.2425628,20.7955002 L85.151906,20.7955002 L85.151906,23.3140895 L77.6603131,23.3140895 C73.6240871,23.3140895 72.5907186,21.8288687 72.5907186,17.8246206 L72.5907186,10.8821279 C72.5907186,6.8778798 73.6240871,5.39265902 77.6603131,5.39265902 L81.4707225,5.39265902 C85.5069485,5.39265902 86.50812,6.8778798 86.50812,9.62272375 L86.50812,11.8508835 C86.50812,14.5955084 85.5069485,16.0809482 81.4707225,16.0809482 L78.2738072,16.0809482 Z" id="Fill-14"></path>
                    <path d="M95.3234672,7.97588309 C93.418372,7.97588309 93.0953075,8.16950278 93.0953075,10.720508 L93.0953075,18.5349464 C93.0953075,20.5048735 93.418372,20.7955221 95.3234672,20.7955221 L98.3587407,20.7955221 L98.3587407,0.0322188433 L102.782863,0.0322188433 L102.782863,23.3141114 L93.7090206,23.3141114 C89.8018014,23.3141114 88.70382,21.9578974 88.70382,17.8246425 L88.70382,10.8821498 C88.70382,6.8779017 89.7049915,5.39268092 93.7090206,5.39268092 L96.8413229,5.39268092 L96.8413229,7.97588309 L95.3234672,7.97588309 Z" id="Fill-16"></path>
                    <path d="M106.076654,23.3140895 L110.46836,23.3140895 L110.46836,5.39243999 L106.076654,5.39243999 L106.076654,23.3140895 Z M106.076654,3.0998864 L110.46836,3.0998864 L110.46836,0 L106.076654,0 L106.076654,3.0998864 Z" id="Fill-18"></path>
                    <path d="M120.962658,12.3351517 L120.962658,14.7893471 L119.864895,14.7893471 C117.927384,14.7893471 117.604539,15.1446086 117.604539,16.6298294 L117.604539,18.8579891 C117.604539,20.5370486 117.927384,20.7955002 119.864895,20.7955002 L122.254259,20.7955002 L122.254259,10.7204861 C122.254259,8.16948088 121.963829,7.97586118 119.993902,7.97586118 L115.602415,7.97586118 L115.602415,5.39265902 L121.608568,5.39265902 C125.612597,5.39265902 126.678381,6.8778798 126.678381,10.8821279 L126.678381,23.3140895 L118.282646,23.3140895 C114.246201,23.3140895 113.212832,21.8288687 113.212832,19.0840247 L113.212832,16.5652165 C113.212832,13.8205915 114.246201,12.3351517 118.282646,12.3351517 L120.962658,12.3351517 Z" id="Fill-20"></path>
                </g>
            </g>
        </g>
    </g>
</svg>