<?xml version="1.0" encoding="UTF-8"?>
<svg width="196px" height="52px" viewBox="0 0 196 52" version="1.1" xmlns="http://www.w3.org/2000/svg" xmlns:xlink="http://www.w3.org/1999/xlink">
    <title>74FFDCAC-6128-4107-983A-19BAF7A64B81</title>
    <g id="Mobile" stroke="none" stroke-width="1" fill="none" fill-rule="evenodd">
        <g id="Create-account" transform="translate(-24.000000, -83.000000)" fill="#107CC0">
            <g id="Logo" transform="translate(24.000000, 83.000000)">
                <path d="M22.9370174,27.3272621 C22.9844847,27.3395262 23.0341858,27.3478881 23.0861206,27.3478881 C23.3776258,27.3478881 23.7623903,27.1388405 24.2258947,26.675591 L33.5021254,17.4323415 C34.4743677,16.4651479 34.7742495,14.9979123 34.2493168,13.780419 C31.9585999,8.48566092 28.0573449,5.41015236 22.9370174,4.84655998 L22.9370174,27.3272621 Z M15.5801417,5.57181585 C15.2434029,5.57181585 14.9077811,5.63759617 14.5872371,5.76469712 C13.0872698,6.36285204 11.730263,7.23360505 10.5592164,8.3524279 C6.73781808,12.0060228 4.72967133,17.987572 4.74356001,25.6448469 C4.72967133,33.3104837 6.73781808,39.2937052 10.5592164,42.9478576 C12.628233,44.9268417 15.1937018,46.0969509 18.1930779,46.4330995 L18.1930779,8.13501838 C18.1930779,6.72129902 17.0197975,5.57181585 15.5801417,5.57181585 L15.5801417,5.57181585 Z M19.8047329,51.2958258 C14.9965729,51.2958258 10.6608523,49.5782906 7.26386765,46.3305268 C2.49312303,41.7671566 -0.020411041,34.6138259 0.000124834089,25.6448469 C-0.020411041,16.6864596 2.49312303,9.53480123 7.26386765,4.96975871 C10.663086,1.72143745 15.032313,0.00222984126 19.8979922,0.00222984126 L20.6530018,0.0167238095 L21.4057776,0 C28.8598218,0 35.0456509,4.15809649 38.3761812,11.4078679 C38.6224528,11.9447022 38.9513734,12.8684139 39.2635409,13.8071771 C39.9627065,15.9221815 39.4171116,18.2105561 37.8367291,19.7825942 L24.8815021,32.6878005 C23.6278065,33.9337243 22.9370174,35.5910538 22.9370174,37.3515135 L22.9370174,43.1730716 C22.9370174,43.8715693 23.2140032,44.5254703 23.7188321,45.0171503 C24.2052324,45.4904341 24.8608399,45.7608023 25.518681,45.7608023 C25.8247056,45.7608023 26.1312887,45.7033839 26.4250276,45.5907769 C27.9702284,44.992622 29.3646506,44.1029154 30.5686452,42.9517598 C31.476667,42.0804493 32.314884,40.9722182 33.1318803,39.5624011 C33.3842948,39.1275821 33.8500329,38.8594436 34.348719,38.8594436 L34.5101078,38.8594436 L34.9378721,38.9904468 L36.6740591,39.802109 C37.0269925,39.9682322 37.2967186,40.2753928 37.4145492,40.6422017 C37.5301461,41.0073382 37.4910554,41.4064798 37.3028614,41.7387262 C36.2250741,43.6480278 35.099261,45.1503833 33.8662276,46.3305268 C30.4714768,49.5805204 26.1061589,51.2974982 21.2466225,51.2974982 L19.8047329,51.2958258 Z" id="Fill-1"></path>
                <path d="M64.644085,32.1112094 C64.644085,34.6621557 65.1294793,35.1790401 66.5521281,35.1790401 L72.0835774,35.1790401 L72.0835774,37.6976458 L65.1294793,37.6976458 C61.5060731,37.6976458 60.1482194,35.7600386 60.1482194,32.1112094 L60.1482194,20.8424491 C60.1482194,16.9995754 61.539039,15.0625356 65.1294793,15.0625356 L72.0193507,15.0625356 L72.0193507,17.6452553 L66.5521281,17.6452553 C65.0646843,17.6452553 64.644085,18.129799 64.644085,20.8424491 L64.644085,32.1112094 Z" id="Fill-1"></path>
                <path d="M78.6182129,32.4018221 C78.6182129,34.9204277 78.9416197,35.1791536 80.8496627,35.1791536 L82.1762557,35.1791536 C84.1166963,35.1791536 84.4401031,34.9204277 84.4401031,32.4018221 L84.4401031,25.1041636 C84.4401031,22.5537846 84.1166963,22.3597402 82.1762557,22.3597402 L80.8496627,22.3597402 C78.9416197,22.3597402 78.6182129,22.5537846 78.6182129,25.1041636 L78.6182129,32.4018221 Z M83.760892,19.7770204 C87.8043292,19.7770204 88.8393445,21.2618573 88.8393445,25.2658673 L88.8393445,32.208345 C88.8393445,36.2117876 87.8043292,37.6971919 83.760892,37.6971919 L79.2326289,37.6971919 C75.2215893,37.6971919 74.2189715,36.2117876 74.2189715,32.208345 L74.2189715,25.2658673 C74.2189715,21.2618573 75.2215893,19.7770204 79.2326289,19.7770204 L83.760892,19.7770204 Z" id="Fill-4"></path>
                <path d="M99.2229752,22.3598536 L96.2145534,22.3598536 L96.2145534,37.6973054 L91.8158804,37.6973054 L91.8158804,19.0338644 C91.8158804,15.5790795 93.0123149,14.4165152 96.3441435,14.4165152 L99.2229752,14.4165152 L99.2229752,16.8704394 L97.1847737,16.8704394 C96.5061311,16.8704394 96.2145534,17.0968246 96.2145534,17.9365489 L96.2145534,19.7765665 L99.2229752,19.7765665 L99.2229752,22.3598536 Z" id="Fill-6"></path>
                <path d="M108.506284,22.3598536 L105.497862,22.3598536 L105.497862,37.6973054 L101.099189,37.6973054 L101.099189,19.0338644 C101.099189,15.5790795 102.295624,14.4165152 105.627452,14.4165152 L108.506284,14.4165152 L108.506284,16.8704394 L106.468083,16.8704394 C105.78944,16.8704394 105.497862,17.0968246 105.497862,17.9365489 L105.497862,19.7765665 L108.506284,19.7765665 L108.506284,22.3598536 Z" id="Fill-8"></path>
                <path d="M115.493348,30.4644418 L115.493348,28.0105176 L117.11095,28.0105176 C119.018993,28.0105176 119.310003,27.6876777 119.310003,26.2022734 L119.310003,24.2970069 C119.310003,22.5534441 119.018993,22.3599671 117.11095,22.3599671 L116.463568,22.3599671 C114.522559,22.3599671 114.199721,22.5534441 114.199721,25.1043905 L114.199721,32.402049 C114.199721,34.9206547 114.522559,35.1788132 116.463568,35.1788132 L122.382651,35.1788132 L122.382651,37.6974188 L114.878364,37.6974188 C110.835495,37.6974188 109.799911,36.2120145 109.799911,32.2080046 L109.799911,25.2655268 C109.799911,21.2620843 110.835495,19.77668 114.878364,19.77668 L118.695587,19.77668 C122.738455,19.77668 123.741642,21.2620843 123.741642,24.0065077 L123.741642,26.2346141 C123.741642,28.9790375 122.738455,30.4644418 118.695587,30.4644418 L115.493348,30.4644418 Z" id="Fill-10"></path>
                <path d="M134.411863,28.753163 L132.180413,28.753163 L132.180413,26.2345574 L133.862242,26.2345574 C135.188266,26.2345574 135.544071,25.4918552 135.544071,21.9077075 C135.544071,18.3882412 135.188266,17.645539 133.862242,17.645539 L130.433789,17.645539 L130.433789,37.6973621 L125.873128,37.6973621 L125.873128,15.0622519 L134.411863,15.0622519 C138.940694,15.0622519 140.008107,16.3218384 140.008107,22.0370704 C140.008107,27.7523024 138.940694,28.753163 134.411863,28.753163" id="Fill-16"></path>
                <path d="M147.512849,30.4644418 L147.512849,28.0105176 L149.130451,28.0105176 C151.038495,28.0105176 151.330072,27.6876777 151.330072,26.2022734 L151.330072,24.2970069 C151.330072,22.5534441 151.038495,22.3599671 149.130451,22.3599671 L148.48307,22.3599671 C146.542629,22.3599671 146.219222,22.5534441 146.219222,25.1043905 L146.219222,32.402049 C146.219222,34.9206547 146.542629,35.1788132 148.48307,35.1788132 L154.402721,35.1788132 L154.402721,37.6974188 L146.898433,37.6974188 C142.854996,37.6974188 141.819412,36.2120145 141.819412,32.2080046 L141.819412,25.2655268 C141.819412,21.2620843 142.854996,19.77668 146.898433,19.77668 L150.715088,19.77668 C154.757957,19.77668 155.761143,21.2620843 155.761143,24.0065077 L155.761143,26.2346141 C155.761143,28.9790375 154.757957,30.4644418 150.715088,30.4644418 L147.512849,30.4644418 Z" id="Fill-18"></path>
                <path d="M164.591909,22.3598536 C162.683866,22.3598536 162.359891,22.5533307 162.359891,25.1042771 L162.359891,32.9182525 C162.359891,34.8882005 162.683866,35.1786997 164.591909,35.1786997 L167.632729,35.1786997 L167.632729,14.4165152 L172.063799,14.4165152 L172.063799,37.6973054 L162.974307,37.6973054 C159.061029,37.6973054 157.96065,36.341264 157.96065,32.2078911 L157.96065,25.2659807 C157.96065,21.2619708 158.963836,19.7765665 162.974307,19.7765665 L166.112319,19.7765665 L166.112319,22.3598536 L164.591909,22.3598536 Z" id="Fill-21"></path>
                <path d="M175.363287,37.6973621 L179.762529,37.6973621 L179.762529,19.7766233 L175.363287,19.7766233 L175.363287,37.6973621 Z M175.363287,17.4838354 L179.762529,17.4838354 L179.762529,14.3842312 L175.363287,14.3842312 L175.363287,17.4838354 Z" id="Fill-23"></path>
                <path d="M190.274897,26.7188741 L190.274897,29.1727983 L189.175087,29.1727983 C187.234078,29.1727983 186.910671,29.527979 186.910671,31.0133832 L186.910671,33.2414897 C186.910671,34.920371 187.234078,35.1790969 189.175087,35.1790969 L191.568524,35.1790969 L191.568524,25.1041068 C191.568524,22.5537278 191.278083,22.3596834 189.304677,22.3596834 L184.906004,22.3596834 L184.906004,19.7769637 L190.922279,19.7769637 C194.93275,19.7769637 196.000163,21.2618006 196.000163,25.2658105 L196.000163,37.6977025 L187.589882,37.6977025 C183.547013,37.6977025 182.511998,36.2117309 182.511998,33.4673074 L182.511998,30.9492692 C182.511998,28.2042784 183.547013,26.7188741 187.589882,26.7188741 L190.274897,26.7188741 Z" id="Fill-25"></path>
            </g>
        </g>
    </g>
</svg>