<?xml version="1.0" encoding="UTF-8"?>
<svg width="28px" height="8px" viewBox="0 0 28 8" version="1.1" xmlns="http://www.w3.org/2000/svg" xmlns:xlink="http://www.w3.org/1999/xlink">
    <title>22C20CF7-50DF-4908-932B-E908DABB70FE</title>
    <g id="Mobile" stroke="none" stroke-width="1" fill="none" fill-rule="evenodd">
        <g id="Home-screen" transform="translate(-312.000000, -1771.000000)" stroke="#606C74" stroke-width="1.7">
            <g id="Group-11" transform="translate(0.000000, 1749.000000)">
                <g id="Group-3" transform="translate(300.000000, 22.000000)">
                    <path d="M36.08,0.85 C36.9277571,0.85 37.6952571,1.19362145 38.2508178,1.74918218 C38.8063785,2.30474291 39.15,3.07224291 39.15,3.92 C39.15,4.76775709 38.8063785,5.53525709 38.2508178,6.09081782 C37.6952571,6.64637855 36.9277571,6.99 36.08,6.99 C35.2322429,6.99 34.4647429,6.64637855 33.9091822,6.09081782 C33.3536215,5.53525709 33.01,4.76775709 33.01,3.92 C33.01,3.07224291 33.3536215,2.30474291 33.9091822,1.74918218 C34.4647429,1.19362145 35.2322429,0.85 36.08,0.85 Z M26,0.85 C26.8477571,0.85 27.6152571,1.19362145 28.1708178,1.74918218 C28.7263785,2.30474291 29.07,3.07224291 29.07,3.92 C29.07,4.76775709 28.7263785,5.53525709 28.1708178,6.09081782 C27.6152571,6.64637855 26.8477571,6.99 26,6.99 C25.1522429,6.99 24.3847429,6.64637855 23.8291822,6.09081782 C23.2736215,5.53525709 22.93,4.76775709 22.93,3.92 C22.93,3.07224291 23.2736215,2.30474291 23.8291822,1.74918218 C24.3847429,1.19362145 25.1522429,0.85 26,0.85 Z M15.92,0.85 C16.7677571,0.85 17.5352571,1.19362145 18.0908178,1.74918218 C18.6463785,2.30474291 18.99,3.07224291 18.99,3.92 C18.99,4.76775709 18.6463785,5.53525709 18.0908178,6.09081782 C17.5352571,6.64637855 16.7677571,6.99 15.92,6.99 C15.0722429,6.99 14.3047429,6.64637855 13.7491822,6.09081782 C13.1936215,5.53525709 12.85,4.76775709 12.85,3.92 C12.85,3.07224291 13.1936215,2.30474291 13.7491822,1.74918218 C14.3047429,1.19362145 15.0722429,0.85 15.92,0.85 Z" id="More-D"></path>
                </g>
            </g>
        </g>
    </g>
</svg>