<?xml version="1.0" encoding="UTF-8"?>
<svg width="42px" height="42px" viewBox="0 0 42 42" version="1.1" xmlns="http://www.w3.org/2000/svg" xmlns:xlink="http://www.w3.org/1999/xlink">
    <title>127BA41B-871D-4078-91BD-1D6F4036F295</title>
    <g id="Mobile" stroke="none" stroke-width="1" fill="none" fill-rule="evenodd">
        <g id="Blog-(Reviews)" transform="translate(-65.000000, -214.000000)">
            <g id="Group-8" transform="translate(16.000000, 185.000000)">
                <g id="Play-icon" transform="translate(49.000000, 29.000000)">
                    <circle id="Oval" fill="#231F20" opacity="0.485072545" cx="21" cy="21" r="21"></circle>
                    <circle id="Oval" stroke="#FFFFFF" stroke-width="2" cx="21" cy="21" r="20"></circle>
                    <path d="M15.1996771,17.0246948 C14.948912,18.6202233 14.8235294,20.027678 14.8235294,21.2470588 C14.8235294,22.4664373 14.9489115,23.8738888 15.1996756,25.4694134 L15.1996671,25.4694148 C15.4569132,27.1061818 16.9923141,28.2245044 18.6290811,27.9672584 C18.8077328,27.9391802 18.9834797,27.8950055 19.1541752,27.8352739 C20.3459207,27.4182456 21.5376662,26.8692327 22.7294118,26.1882353 C24.0188597,25.4514079 25.3083076,24.6115722 26.5977555,23.6687281 L26.5977486,23.6687186 C27.9351984,22.6907756 28.2266362,20.8137788 27.2486932,19.476329 C27.0664934,19.2271499 26.8469273,19.0075838 26.5977481,18.8253841 C25.3083027,17.8825423 24.0188572,17.0427083 22.7294118,16.3058824 C21.5376655,15.6248845 20.3459192,15.0758713 19.1541729,14.6588429 L19.1541728,14.6588433 C17.5903034,14.1115977 15.8789065,14.935734 15.3316609,16.4996034 C15.2719296,16.670298 15.2277552,16.846044 15.1996771,17.0246948 Z" id="Path-2" fill="#FFFFFF"></path>
                </g>
            </g>
        </g>
    </g>
</svg>