<?xml version="1.0" encoding="UTF-8"?>
<svg width="25px" height="25px" viewBox="0 0 25 25" version="1.1" xmlns="http://www.w3.org/2000/svg" xmlns:xlink="http://www.w3.org/1999/xlink">
    <title>E000BBBF-62DA-4E40-BD8E-2EEDC145A207</title>
    <g id="Mobile" stroke="none" stroke-width="1" fill="none" fill-rule="evenodd">
        <g id="Category-screen" transform="translate(-222.000000, -1762.000000)" fill="#606C74" stroke="#606C74" stroke-width="0.2">
            <g id="Group-11" transform="translate(0.000000, 1749.000000)">
                <g id="Group-2-Copy-2" transform="translate(209.000000, 13.000000)">
                    <g id="Profile-icon-deselected" transform="translate(14.000000, 0.000000)">
                        <path d="M17.1005571,20.9118429 C16.5199857,19.0682714 14.1935571,17.5691286 11.9225571,17.5746845 C9.65841429,17.5802714 7.32441429,19.1058429 6.77612857,20.9387 C9.56127143,22.8458429 14.6494143,22.8325571 17.1005571,20.9118429 M18.5437,19.9059857 C21.3982714,17.7179857 23.1447,13.2777 21.7775571,8.97327143 C20.4117,4.67198571 16.3514143,1.72541429 11.7875571,1.75898571 C7.39384286,1.79127143 3.33398571,4.84098571 2.0737,9.05441429 C0.711414286,13.6082714 2.66984286,17.8722714 5.33998571,19.9029857 C6.81484286,17.4064143 8.97227143,15.9859857 11.9112714,15.9717 C14.8598429,15.9572714 17.0174143,17.3749857 18.5437,19.9059857 M11.9849857,24.0062866 C5.29612857,23.9715571 -0.0178714286,18.6687 8.29784872e-05,12.0461286 C0.0179857143,5.40827143 5.3807,0.104414286 12.0349857,0.142776666 C18.5891286,0.181128571 23.9012714,5.54384286 23.8804755,12.1011286 C23.8594143,18.6734143 18.4972714,24.0398429 11.9849857,24.0062866" id="Fill-1"></path>
                        <path d="M11.9558857,13.747076 C13.5973143,13.7443571 14.9081714,12.4257857 14.8928857,10.7927857 C14.8781714,9.22621429 13.5330286,7.89064286 11.9601714,7.8808776 C10.3917429,7.87135714 8.99774286,9.21107143 8.97545714,10.7496429 C8.95145714,12.4055 10.2880286,13.7499286 11.9558857,13.747076 M11.9263143,6.26763071 C14.4910286,6.26192857 16.5087429,8.2725 16.511603,10.8366429 C16.5144571,13.3600714 14.4447429,15.4262143 11.9213143,15.419232 C9.44374286,15.4123571 7.38331429,13.3512143 7.36952747,10.8659286 C7.3556,8.30607143 9.37002857,6.27321429 11.9263143,6.26763071" id="Fill-4"></path>
                    </g>
                </g>
            </g>
        </g>
    </g>
</svg>