<?xml version="1.0" encoding="UTF-8"?>
<svg width="20px" height="21px" viewBox="0 0 20 21" version="1.1" xmlns="http://www.w3.org/2000/svg" xmlns:xlink="http://www.w3.org/1999/xlink">
    <title>D291CE4D-3513-43C8-9771-C06D68CFE38A</title>
    <defs>
        <rect id="path-1" x="0" y="0" width="20" height="20"></rect>
        <path d="M9.45833333,0.833333333 C13.761552,0.833333333 17.25,4.32178132 17.25,8.625 C17.25,10.4460548 16.6252713,12.1211965 15.5784411,13.4477976 L19.7315145,17.6018188 C20.0894952,17.9597994 20.0894952,18.5402006 19.7315145,18.8981812 C19.3735339,19.2561618 18.7931327,19.2561618 18.4351521,18.8981812 L18.4351521,18.8981812 L14.281131,14.7451078 C12.9545298,15.791938 11.2793882,16.4166667 9.45833333,16.4166667 C5.15511466,16.4166667 1.66666667,12.9282187 1.66666667,8.625 C1.66666667,4.32178132 5.15511466,0.833333333 9.45833333,0.833333333 Z M9.45833333,2.66666667 C6.1676367,2.66666667 3.5,5.33430337 3.5,8.625 C3.5,11.9156966 6.1676367,14.5833333 9.45833333,14.5833333 C11.08511,14.5833333 12.5596182,13.9313945 13.6348427,12.874532 L13.6684855,12.8351521 C13.6808624,12.8227751 13.6935053,12.8108261 13.7063957,12.7993049 C14.7647278,11.7262848 15.4166667,10.2517767 15.4166667,8.625 C15.4166667,5.33430337 12.74903,2.66666667 9.45833333,2.66666667 Z" id="path-3"></path>
    </defs>
    <g id="Mobile" stroke="none" stroke-width="1" fill="none" fill-rule="evenodd">
        <g id="Home-screen" transform="translate(-31.000000, -64.000000)">
            <g id="Group-2" transform="translate(15.000000, 53.000000)">
                <g id="Search-icon" transform="translate(16.000000, 11.500000)">
                    <mask id="mask-2" fill="white">
                        <use xlink:href="#path-1"></use>
                    </mask>
                    <g id="basic-/-heart_outline-(Background/Mask)"></g>
                    <mask id="mask-4" fill="white">
                        <use xlink:href="#path-3"></use>
                    </mask>
                    <use id="Combined-Shape" fill="#000000" fill-rule="nonzero" xlink:href="#path-3"></use>
                </g>
            </g>
        </g>
    </g>
</svg>