<?xml version="1.0" standalone="no"?>
<!DOCTYPE svg PUBLIC "-//W3C//DTD SVG 20010904//EN"
 "http://www.w3.org/TR/2001/REC-SVG-20010904/DTD/svg10.dtd">
<svg version="1.0" xmlns="http://www.w3.org/2000/svg"
 width="24.000000pt" height="18.000000pt" viewBox="0 0 24.000000 18.000000"
 preserveAspectRatio="xMidYMid meet">

<g transform="translate(0.000000,18.000000) scale(0.100000,-0.100000)"
fill="#000000" stroke="none">
<path d="M70 155 c-13 -14 -34 -25 -48 -25 -19 0 -23 -4 -17 -17 4 -10 12 -38
19 -63 l11 -45 85 0 85 0 11 45 c7 25 15 53 19 63 6 13 2 17 -16 17 -13 0 -35
12 -51 27 -31 30 -51 24 -23 -7 18 -20 18 -20 -25 -20 -41 0 -42 1 -27 18 35
38 12 45 -23 7z m137 -62 c-3 -10 -8 -30 -11 -45 -6 -27 -8 -28 -76 -28 -68 0
-70 1 -76 28 -3 15 -8 35 -11 45 -4 15 5 17 87 17 82 0 91 -2 87 -17z"/>
<path d="M70 66 c0 -14 5 -26 10 -26 6 0 10 9 10 19 0 11 -4 23 -10 26 -6 4
-10 -5 -10 -19z"/>
<path d="M110 65 c0 -14 5 -25 10 -25 6 0 10 11 10 25 0 14 -4 25 -10 25 -5 0
-10 -11 -10 -25z"/>
<path d="M157 83 c-11 -10 -8 -43 3 -43 6 0 10 11 10 25 0 26 -2 29 -13 18z"/>
</g>
</svg>
