<?xml version="1.0" encoding="UTF-8"?>
<svg width="13px" height="13px" viewBox="0 0 13 13" version="1.1" xmlns="http://www.w3.org/2000/svg" xmlns:xlink="http://www.w3.org/1999/xlink">
    <title>3A31500D-FA1D-4EE6-82DC-D4B2A50F92F6</title>
    <g id="Mobile" stroke="none" stroke-width="1" fill="none" fill-rule="evenodd">
        <g id="Home-screen" transform="translate(-253.000000, -635.000000)" fill="#F7B500" fill-rule="nonzero">
            <g id="Group-12" transform="translate(15.000000, 537.000000)">
                <g id="Group-6" transform="translate(226.000000, 41.000000)">
                    <g id="Group-5" transform="translate(12.000000, 57.000000)">
                        <path d="M10.2069169,12.2622082 C10.43099,12.2622082 10.5237099,12.0767684 10.5237099,11.8758753 C10.5237099,11.8217887 10.5237099,11.7754287 10.5159832,11.7213421 L9.85149055,7.85801246 L12.6562679,5.12277509 C12.7567144,5.02232852 12.857161,4.89097531 12.857161,4.75189544 C12.857161,4.52009566 12.6099079,4.42737575 12.4244681,4.39646912 L8.54568514,3.83242299 L6.8071868,0.316793029 C6.73764687,0.169986504 6.60629366,0 6.4285805,0 C6.25086734,0 6.11951413,0.169986504 6.0499742,0.316793029 L4.31147586,3.83242299 L0.432692918,4.39646912 C0.239526437,4.42737575 0,4.52009566 0,4.75189544 C0,4.89097531 0.10044657,5.02232852 0.193166481,5.12277509 L3.00567045,7.85801246 L2.34117775,11.7213421 C2.33345109,11.7754287 2.32572444,11.8217887 2.32572444,11.8758753 C2.32572444,12.0767684 2.42617101,12.2622082 2.65024412,12.2622082 C2.75841735,12.2622082 2.85886392,12.2235749 2.95931049,12.1694883 L6.4285805,10.3459967 L9.89785051,12.1694883 C9.99057042,12.2235749 10.0987436,12.2622082 10.2069169,12.2622082 Z" id="Star-active-s"></path>
                    </g>
                </g>
            </g>
        </g>
    </g>
</svg>