<?xml version="1.0" encoding="UTF-8"?>
<svg width="16px" height="16px" viewBox="0 0 16 16" version="1.1" xmlns="http://www.w3.org/2000/svg" xmlns:xlink="http://www.w3.org/1999/xlink">
    <title>0F214D1C-35AA-49F8-8C1D-52DB2C79255B</title>
    <g id="Mobile" stroke="none" stroke-width="1" fill="none" fill-rule="evenodd">
        <g id="About-Coffepedia" transform="translate(-15.000000, -1653.000000)" fill="#838A93">
            <g id="Group-6" transform="translate(15.000000, 1555.000000)">
                <g id="Group-36" transform="translate(0.000000, 39.000000)">
                    <g id="web" transform="translate(0.000000, 59.000000)">
                        <path d="M7.68688696,15.0260522 C3.82601739,15.0260522 0.695582609,11.8956174 0.695582609,8.03474783 C0.695582609,4.17387826 3.82601739,1.04344348 7.68688696,1.04344348 C11.5481043,1.04344348 14.6785391,4.17387826 14.6785391,8.03474783 C14.6785391,11.8956174 11.5481043,15.0260522 7.68688696,15.0260522 M7.68688696,0.347791304 C3.4434087,0.347791304 -6.95652174e-05,3.79126957 -6.95652174e-05,8.03474783 C-6.95652174e-05,12.2782261 3.4434087,15.7217043 7.68688696,15.7217043 C11.9303652,15.7217043 15.3741913,12.2782261 15.3741913,8.03474783 C15.3741913,3.79126957 11.9303652,0.347791304 7.68688696,0.347791304" id="Fill-1"></path>
                        <path d="M14.0870261,8.27826087 C14.0174609,8.34782609 13.913113,8.34782609 13.8087652,8.34782609 C13.7040696,8.31304348 13.6348522,8.27826087 13.565287,8.17391304 L13.2174609,7.5826087 C13.113113,7.40869565 12.9044174,7.30434783 12.6605913,7.33913043 C12.4522435,7.37391304 12.2783304,7.54782609 12.2087652,7.75652174 L11.6522435,10.2608696 L11.6522435,10.3304348 C11.6522435,11.2 11.4783304,11.826087 11.0953739,12.1391304 C10.7826783,12.4173913 10.3997217,12.3478261 10.365287,12.3478261 C10.3305043,12.3478261 10.2957217,12.3826087 10.2258087,12.3130435 C10.0174609,12.1043478 9.91311304,11.3043478 9.98267826,10.4347826 C9.98267826,10.3304348 9.94789565,10.226087 9.87798261,10.1565217 C9.80876522,10.0869565 9.70406957,10.0173913 9.60006957,10.0173913 C9.21746087,10.0173913 8.86963478,9.84347826 8.59137391,9.53043478 C8.27833043,9.14782609 7.79102609,8.8 7.47833043,8.59130435 C7.30441739,8.48695652 7.20006957,8.34782609 7.13050435,8.17391304 L6.74754783,7.40869565 C6.71311304,7.30434783 6.67833043,7.2 6.67833043,7.09565217 C6.74754783,6.4 7.13050435,5.53043478 7.37398261,5.04347826 L7.68702609,5.53043478 C7.89572174,5.87826087 8.27833043,6.0173913 8.6605913,5.94782609 C9.04354783,5.87826087 9.3218087,5.56521739 9.35624348,5.2173913 L9.35624348,5.14782609 C9.39137391,4.76521739 9.66963478,4.4173913 10.0174609,4.27826087 L10.8174609,3.96521739 C10.8174609,3.96521739 10.8522435,3.96521739 10.8522435,3.93043478 C11.4783304,3.54782609 11.4087652,2.60869565 11.2348522,1.94782609 C13.2870261,3.16521739 14.6087652,5.39130435 14.6783304,7.82608696 L14.0870261,8.27826087 Z M10.9214609,1.04347826 C10.8870261,1.04347826 10.8522435,1.00869565 10.8174609,1.00869565 L10.7475478,1.00869565 C10.6435478,1.00869565 10.5044174,1.04347826 10.4348522,1.14782609 C10.365287,1.25217391 10.3305043,1.35652174 10.3997217,1.49565217 C10.6435478,2.05217391 10.8870261,3.16521739 10.5392,3.40869565 L9.77398261,3.72173913 C9.18233043,3.96521739 8.76528696,4.48695652 8.69572174,5.11304348 L8.69572174,5.14782609 C8.6605913,5.28695652 8.5565913,5.32173913 8.5218087,5.32173913 C8.45224348,5.32173913 8.31276522,5.32173913 8.27833043,5.2173913 L7.93050435,4.66086957 C7.79102609,4.45217391 7.58267826,4.34782609 7.3392,4.34782609 C7.09537391,4.34782609 6.88702609,4.48695652 6.78267826,4.73043478 C6.46963478,5.35652174 6.1218087,6.29565217 6.01746087,7.06086957 C5.98267826,7.30434783 6.01746087,7.54782609 6.1218087,7.75652174 L6.50441739,8.52173913 C6.64354783,8.8 6.85224348,9.00869565 7.09537391,9.1826087 C7.3392,9.32173913 7.79102609,9.63478261 8.06963478,9.9826087 C8.38267826,10.3652174 8.83450435,10.6086957 9.28702609,10.7130435 C9.25224348,11.3391304 9.3218087,12.3826087 9.7392,12.8347826 C9.87798261,13.0086957 10.0870261,13.0782609 10.2957217,13.0782609 L10.4696348,13.0782609 C10.713113,13.0782609 11.1305043,13.0086957 11.513113,12.6956522 C12.0348522,12.2434783 12.3127652,11.4782609 12.3127652,10.4347826 L12.8000696,8.27826087 L12.9739826,8.59130435 C13.113113,8.83478261 13.3562435,9.00869565 13.6348522,9.07826087 C13.913113,9.14782609 14.2258087,9.07826087 14.4348522,8.90434783 L15.165287,8.34782609 C15.2348522,8.27826087 15.3044174,8.17391304 15.3044174,8.06956522 C15.3739826,5.04347826 13.6000696,2.29565217 10.9214609,1.04347826 L10.9214609,1.04347826 Z" id="Fill-4"></path>
                        <path d="M6.05203478,14.7130435 L6.01725217,14.8521739 C3.65238261,14.2608696 1.73933913,12.4869565 1.00855652,10.1565217 L2.33064348,9.66956522 C2.39986087,9.63478261 2.50455652,9.63478261 2.57377391,9.70434783 C2.64333913,9.73913043 2.67846957,9.84347826 2.67846957,9.91304348 L2.67846957,10.4 C2.67846957,11.1304348 3.09551304,11.7565217 3.75638261,12.0347826 L4.79986087,12.4869565 C5.04368696,12.5913043 5.25203478,12.7304348 5.42594783,12.9043478 L5.6349913,13.1130435 C6.05203478,13.5304348 6.22594783,14.1217391 6.05203478,14.7130435 M6.1216,12.6608696 L5.91325217,12.4521739 C5.66942609,12.2086957 5.39151304,12 5.07812174,11.8608696 L4.03464348,11.4086957 C3.61725217,11.2347826 3.3389913,10.8173913 3.3389913,10.3652174 L3.3389913,9.87826087 C3.3389913,9.56521739 3.2002087,9.28695652 2.9216,9.11304348 C2.67846957,8.93913043 2.33064348,8.90434783 2.05203478,9.00869565 L0.452034783,9.6 C0.278121739,9.66956522 0.208556522,9.84347826 0.243686957,9.9826087 C1.00855652,12.7652174 3.30455652,14.9565217 6.15673043,15.5130435 L6.22594783,15.5130435 C6.36507826,15.5130435 6.50455652,15.4086957 6.5389913,15.2695652 L6.67846957,14.8521739 C6.9216,14.0869565 6.71290435,13.2173913 6.1216,12.6608696" id="Fill-6"></path>
                        <path d="M4.00006957,3.30441739 C4.00006957,3.58267826 3.89572174,3.86093913 3.68702609,4.06963478 L2.71311304,5.04354783 C2.43485217,5.3218087 2.33050435,5.70441739 2.46963478,6.08702609 C2.5392,6.26093913 2.43485217,6.43485217 2.26093913,6.50441739 L0.695721739,7.13050435 C0.9392,5.11311304 2.08702609,3.30441739 3.79102609,2.19137391 C3.89572174,2.40006957 3.96493913,2.67833043 3.96493913,2.9218087 L3.96493913,3.30441739 L4.00006957,3.30441739 Z M4.17398261,1.49572174 C4.06963478,1.3565913 3.89572174,1.3218087 3.7565913,1.42615652 C1.56528696,2.74789565 0.138852174,5.04354783 0.0348521739,7.61746087 C0.0348521739,7.7218087 0.0696347826,7.82615652 0.173982609,7.89572174 C0.243547826,7.93050435 0.312765217,7.96528696 0.382678261,7.96528696 C0.41746087,7.96528696 0.452243478,7.96528696 0.486678261,7.93050435 L2.57363478,7.13050435 C3.06093913,6.9218087 3.3392,6.36528696 3.16528696,5.87833043 C3.13050435,5.7392 3.16528696,5.63485217 3.23485217,5.53050435 L4.20876522,4.5565913 C4.5218087,4.24354783 4.73050435,3.79137391 4.73050435,3.3392 L4.73050435,2.9218087 C4.69572174,2.36528696 4.5218087,1.87833043 4.17398261,1.49572174 L4.17398261,1.49572174 Z" id="Fill-8"></path>
                    </g>
                </g>
            </g>
        </g>
    </g>
</svg>